<?xml version="1.0" encoding="utf-8"?>
<!-- Generator: Adobe Illustrator 23.1.1, SVG Export Plug-In . SVG Version: 6.00 Build 0)  -->
<svg version="1.1" id="Calque_1" xmlns="http://www.w3.org/2000/svg" xmlns:xlink="http://www.w3.org/1999/xlink" x="0px" y="0px"
	 viewBox="0 0 43.6 37.5" style="enable-background:new 0 0 43.6 37.5;" xml:space="preserve">
<style type="text/css">
	.st0{fill:#2AAFB5;}
	.st1{fill:#FFF8FA;}
	.st2{fill:#FFDCE5;}
	.st3{fill:#F9E5EB;}
	.st4{fill:#2EC9D9;}
	.st5{fill:#FFFFFF;}
	.st6{fill:#56EBEE;}
	.st7{fill:#FF8E39;}
	.st8{fill:#FF9D46;}
	.st9{fill:#FF6B06;}
	.st10{fill:#FF8A33;}
	.st11{fill:#666666;}
	.st12{fill:#F2F2F2;}
	.st13{fill:#FF903E;}
	.st14{fill:#FCB454;}
	.st15{fill:#FF862C;}
	.st16{opacity:0.28;fill:#FFFFFF;enable-background:new    ;}
</style>
<g>
	<g>
		<g id="Calque_1-2_1_">
			<polygon class="st0" points="28.3,-0.1 28.3,16.8 37.8,21.6 37.8,4.5 			"/>
			<polygon class="st1" points="26.7,1.2 26.7,17.6 35.9,22.2 35.9,5.7 			"/>
			<polygon class="st2" points="35.9,5.7 37.6,4.8 37.6,21.2 35.9,22.2 			"/>
			<polygon class="st3" points="35.9,5.7 26.7,1.2 28.5,0.3 37.6,4.8 			"/>
			<polygon class="st4" points="36,5.5 37.8,4.5 37.8,21.6 36,22.6 			"/>
			<polygon class="st5" points="36.3,7.3 37.6,6.6 37.6,16.8 36.3,17.5 			"/>
			<polygon class="st6" points="36.3,6.8 37.6,6.1 37.6,6.8 36.3,7.6 			"/>
			<polygon class="st6" points="36.3,16.8 37.6,16.1 37.6,16.8 36.3,17.5 			"/>
			<ellipse transform="matrix(0.1918 -0.9814 0.9814 0.1918 10.9016 51.7791)" class="st0" cx="36.9" cy="19.3" rx="0.7" ry="0.5"/>
			<polygon class="st6" points="26.5,0.8 26.5,17.8 36,22.6 36,5.5 			"/>
			<polygon class="st0" points="25.3,1.3 25.3,18.2 34.9,23 34.9,5.9 			"/>
			<polygon class="st1" points="23.7,2.6 23.7,18.9 32.9,23.6 32.9,7.1 			"/>
			<polygon class="st2" points="32.9,7.1 34.7,6.2 34.7,22.6 32.9,23.6 			"/>
			<polygon class="st3" points="32.9,7.1 23.7,2.6 25.5,1.7 34.7,6.2 			"/>
			<polygon class="st4" points="33,6.9 34.9,6 34.9,23 33,24 			"/>
			<polygon class="st5" points="33.3,8.7 34.7,8 34.7,18.1 33.3,18.8 			"/>
			<polygon class="st6" points="33.3,8.2 34.7,7.5 34.7,8.3 33.3,9 			"/>
			<polygon class="st6" points="33.3,18.1 34.7,17.5 34.7,18.1 33.3,18.8 			"/>
			<ellipse transform="matrix(0.1918 -0.9814 0.9814 0.1918 7.1281 49.9767)" class="st0" cx="33.9" cy="20.7" rx="0.7" ry="0.5"/>
			<polygon class="st6" points="23.5,2.3 23.5,19.2 33,24 33,6.9 			"/>
			<polygon class="st0" points="24,3.6 24,20.5 33.6,25.3 33.6,8.3 			"/>
			<polygon class="st4" points="31.7,9.3 33.6,8.3 33.6,25.3 31.7,26.3 			"/>
			<polygon class="st5" points="32,11 33.4,10.4 33.4,20.5 32,21.2 			"/>
			<polygon class="st6" points="32,10.6 33.4,9.9 33.4,10.6 32,11.3 			"/>
			<polygon class="st6" points="32,20.5 33.4,19.8 33.4,20.5 32,21.2 			"/>
			<ellipse transform="matrix(0.1918 -0.9814 0.9814 0.1918 3.7961 50.6261)" class="st0" cx="32.6" cy="23" rx="0.7" ry="0.5"/>
			<polygon class="st6" points="23.1,4.1 23.1,21.1 31.7,26.3 31.7,9.3 			"/>
		</g>
	</g>
	<g>
		<path d="M15.7,35.1c0,0-0.3-0.2-0.6-0.6c-0.2-0.4-0.4-1,0-1.6c0.5-1,0.6-2.2,0-3.3c-0.7-1.5-2.2-2.5-4.2-2.9s-3.6-1-4.8-1.7
			c-0.9-0.6-1.5-1.3-1.4-2c0-0.4,0.2-0.8,0.5-1.1s0.8-0.5,1.4-0.6c1.4-0.2,2-0.4,2.5-0.7c0.4-0.3,0.7-0.8,1.1-1.7
			c0.1-0.2,0.2-0.4,0.3-0.7c0.4-0.8,1-1.4,1.7-1.6c1.4-0.5,3.1,0.3,3.1,0.3v0.1c0,0-1.6-0.8-3-0.3c-0.7,0.3-1.3,0.8-1.7,1.6
			c-0.1,0.2-0.2,0.5-0.3,0.7c-0.8,1.8-0.9,2-3.6,2.4c-0.6,0.1-1,0.3-1.4,0.6c-0.3,0.3-0.5,0.6-0.5,1c0,0.7,0.5,1.4,1.4,2
			c1.1,0.5,2.8,1.1,4.7,1.5c2.1,0.4,3.6,1.4,4.2,2.9c0.5,1.1,0.5,2.4,0,3.4c-0.3,0.5-0.3,1,0,1.5S15.8,35,15.7,35.1L15.7,35.1z"/>
		<g>
			<g>
				<path class="st7" d="M21.7,19.9l-5.5,5.9l-7.5-3.5v1c0,0.3,0.2,0.6,0.5,0.8l6.1,3.1c0.6,0.3,1.2,0.3,1.8,0l6.4-3.3
					c0.7-0.3,1.1-1,1.1-1.8v-3.8L21.7,19.9z"/>
				<path class="st8" d="M8.9,23l6.2,3.2c0.6,0.3,1.2,0.1,1.6-0.3l4.3-5.1c0.4-0.4,0.8-0.8,1.3-1l2-1c0.3-0.1,0.3-0.5,0-0.7l-7-3.6
					c-0.2-0.1-0.4-0.1-0.6,0l-2.5,1.3c-0.4,0.2-0.7,0.4-0.9,0.8l-4.6,5.6C8.5,22.4,8.6,22.8,8.9,23z"/>
			</g>
			<ellipse transform="matrix(0.5666 -0.824 0.824 0.5666 -11.1421 21.4234)" class="st9" cx="14.8" cy="21.3" rx="3.2" ry="2.7"/>
			<ellipse transform="matrix(0.5666 -0.824 0.824 0.5666 -11.1374 21.1697)" class="st7" cx="14.6" cy="21.2" rx="3.2" ry="2.7"/>
			<ellipse transform="matrix(0.5666 -0.824 0.824 0.5666 -11.0993 21.2375)" class="st9" cx="14.6" cy="21.2" rx="1.6" ry="1.3"/>
			<ellipse transform="matrix(0.5666 -0.824 0.824 0.5666 -11.0811 21.1093)" class="st10" cx="14.5" cy="21.1" rx="1.6" ry="1.3"/>
			<g>
				<ellipse class="st5" cx="12.6" cy="20.3" rx="0.4" ry="0.4"/>
				<g>
					<path class="st11" d="M12.4,20c0.1-0.2,0.4-0.3,0.5-0.1l0,0l0,0C12.7,19.8,12.5,19.8,12.4,20c-0.2,0.2-0.1,0.4,0,0.5
						C12.3,20.4,12.2,20.2,12.4,20z"/>
					<path class="st11" d="M12.4,20.6c-0.2-0.1-0.2-0.4-0.1-0.5c0.1-0.1,0.2-0.2,0.3-0.2s0.2,0,0.3,0l0,0l0,0l0,0
						c-0.1-0.1-0.2-0.1-0.3,0c-0.1,0-0.2,0.1-0.2,0.2C12.3,20.2,12.3,20.4,12.4,20.6L12.4,20.6z M12.7,19.8
						C12.6,19.8,12.6,19.8,12.7,19.8c-0.2,0-0.3,0.1-0.3,0.2c-0.1,0.1-0.1,0.3,0,0.4c-0.1-0.1,0-0.3,0-0.4l0,0
						C12.4,19.9,12.5,19.9,12.7,19.8L12.7,19.8C12.8,19.8,12.7,19.8,12.7,19.8z"/>
				</g>
			</g>
			<g>
				<ellipse class="st5" cx="12.3" cy="21.4" rx="0.4" ry="0.4"/>
				<g>
					<path class="st11" d="M12,21.3c0.1-0.2,0.4-0.3,0.5-0.1l0,0l0,0C12.4,21,12.1,21,12,21.3c-0.2,0.2-0.1,0.4,0,0.5
						C11.9,21.7,11.9,21.4,12,21.3z"/>
					<path class="st11" d="M12.1,21.8c-0.2-0.1-0.2-0.4-0.1-0.6c0.1-0.2,0.4-0.3,0.5-0.1l0,0l0,0l0,0c-0.1-0.1-0.2-0.1-0.3,0
						c-0.1,0-0.2,0.1-0.2,0.2l0,0C11.9,21.4,11.9,21.6,12.1,21.8L12.1,21.8z M12.4,21c-0.1,0-0.3,0.1-0.3,0.2
						c-0.1,0.1-0.1,0.3,0,0.4c-0.1-0.1,0-0.3,0-0.4l0,0C12.1,21.2,12.2,21.1,12.4,21L12.4,21C12.4,21.1,12.4,21,12.4,21z"/>
				</g>
			</g>
			<g>
				<ellipse class="st5" cx="12.5" cy="22.4" rx="0.4" ry="0.4"/>
				<g>
					<path class="st11" d="M12.2,22.2c0.1-0.2,0.4-0.3,0.5-0.1l0,0l0,0C12.6,22,12.3,22,12.2,22.2c-0.2,0.2-0.1,0.4,0,0.5
						C12.1,22.6,12.1,22.4,12.2,22.2z"/>
					<path class="st11" d="M12.2,22.8c-0.2-0.1-0.2-0.4-0.1-0.5c0.1-0.2,0.4-0.3,0.5-0.1l0,0l0,0l0,0c-0.1-0.1-0.2-0.1-0.3,0
						c-0.1,0-0.2,0.1-0.2,0.2C12.1,22.4,12.1,22.6,12.2,22.8L12.2,22.8z M12.5,22c-0.1,0-0.3,0.1-0.3,0.2c-0.1,0.1-0.1,0.3,0,0.4
						c-0.1-0.1,0-0.3,0-0.4l0,0C12.3,22.2,12.4,22.1,12.5,22L12.5,22C12.6,22,12.6,22,12.5,22z"/>
				</g>
			</g>
			<g>
				<ellipse class="st5" cx="15.5" cy="18.9" rx="0.4" ry="0.4"/>
				<g>
					<path class="st11" d="M15.3,18.7c0.1-0.2,0.4-0.3,0.5-0.1l0,0l0,0C15.6,18.5,15.4,18.5,15.3,18.7c-0.2,0.2-0.1,0.4,0,0.5
						C15.2,19.1,15.2,18.9,15.3,18.7z"/>
					<path class="st11" d="M15.3,19.3c-0.2-0.1-0.2-0.4-0.1-0.5c0.1-0.1,0.2-0.2,0.3-0.2c0.1,0,0.2,0,0.3,0l0,0l0,0l0,0
						c-0.1-0.1-0.2-0.1-0.3,0c-0.1,0-0.2,0.1-0.2,0.2C15.2,18.9,15.2,19.1,15.3,19.3L15.3,19.3z M15.6,18.5L15.6,18.5
						c-0.2,0-0.3,0.1-0.3,0.2c-0.1,0.1-0.1,0.3,0,0.4c-0.1-0.1,0-0.3,0-0.4l0,0C15.4,18.6,15.5,18.6,15.6,18.5L15.6,18.5
						C15.6,18.5,15.6,18.5,15.6,18.5z"/>
				</g>
			</g>
			<g>
				<ellipse class="st5" cx="13.2" cy="23.2" rx="0.4" ry="0.4"/>
				<g>
					<path class="st11" d="M12.9,23c0.1-0.2,0.4-0.3,0.5-0.1l0,0l0,0C13.3,22.7,13,22.8,12.9,23c-0.2,0.2-0.1,0.4,0,0.5
						C12.8,23.4,12.8,23.2,12.9,23z"/>
					<path class="st11" d="M12.9,23.5c-0.2-0.1-0.2-0.4-0.1-0.5c0.1-0.1,0.2-0.2,0.3-0.2c0.1,0,0.2,0,0.3,0l0,0l0,0l0,0
						c-0.1-0.1-0.2-0.1-0.3,0c-0.1,0-0.2,0.1-0.2,0.2C12.8,23.2,12.8,23.4,12.9,23.5L12.9,23.5z M13.2,22.8L13.2,22.8
						c-0.2,0-0.3,0.1-0.3,0.2c-0.1,0.1-0.1,0.3,0,0.4c-0.1-0.1,0-0.3,0-0.4l0,0C13,22.9,13.1,22.9,13.2,22.8L13.2,22.8
						C13.3,22.8,13.3,22.8,13.2,22.8z"/>
				</g>
			</g>
			<g>
				<ellipse class="st5" cx="14.4" cy="23.3" rx="0.4" ry="0.4"/>
				<g>
					<path class="st11" d="M14.1,23.2c0.1-0.2,0.4-0.3,0.5-0.1l0,0l0,0C14.4,22.9,14.2,23,14.1,23.2c-0.2,0.2-0.1,0.4,0,0.5
						C14,23.6,14,23.4,14.1,23.2z"/>
					<path class="st11" d="M14.1,23.7c-0.2-0.1-0.2-0.4-0.1-0.5c0.1-0.1,0.2-0.2,0.3-0.2c0.1,0,0.2,0,0.3,0l0,0l0,0l0,0
						c-0.2-0.1-0.4,0-0.5,0.1C14,23.4,14,23.6,14.1,23.7L14.1,23.7z M14.4,23C14.4,23,14.3,23,14.4,23c-0.2,0-0.3,0.1-0.3,0.2
						c-0.1,0.1-0.1,0.3,0,0.4c-0.1-0.1,0-0.3,0-0.4l0,0C14.2,23,14.4,23,14.4,23C14.5,23,14.4,23,14.4,23z"/>
				</g>
			</g>
			<g>
				<ellipse class="st5" cx="16.7" cy="20.5" rx="0.4" ry="0.4"/>
				<g>
					<path class="st11" d="M16.4,20.3c0.1-0.2,0.4-0.3,0.5-0.1l0,0l0,0C16.8,20.1,16.5,20.1,16.4,20.3c-0.2,0.2-0.1,0.4,0,0.5
						C16.3,20.7,16.3,20.5,16.4,20.3z"/>
					<path class="st11" d="M16.4,20.9c-0.2-0.1-0.2-0.4-0.1-0.5c0.1-0.1,0.2-0.2,0.3-0.2c0.1,0,0.2,0,0.3,0l0,0l0,0l0,0
						c-0.2-0.1-0.4,0-0.5,0.1l0,0C16.3,20.5,16.3,20.7,16.4,20.9L16.4,20.9z M16.7,20.1L16.7,20.1c-0.2,0-0.3,0.1-0.3,0.2
						c-0.1,0.1-0.1,0.3,0,0.4c-0.1-0.1,0-0.3,0-0.4C16.5,20.1,16.7,20.1,16.7,20.1C16.8,20.1,16.8,20.1,16.7,20.1z"/>
				</g>
			</g>
			<g>
				<ellipse class="st5" cx="16.4" cy="19.6" rx="0.4" ry="0.4"/>
				<g>
					<path class="st11" d="M16,19.4c0.1-0.2,0.4-0.3,0.5-0.1l0,0l0,0C16.3,19.1,16.1,19.2,16,19.4c-0.2,0.2-0.1,0.4,0,0.5
						C15.9,19.8,15.9,19.5,16,19.4z"/>
					<path class="st11" d="M16,19.9c-0.2-0.1-0.2-0.4-0.1-0.5c0.1-0.1,0.2-0.2,0.3-0.2c0.1,0,0.2,0,0.3,0l0,0l0,0l0,0
						c-0.2-0.1-0.4,0-0.5,0.1l0,0C15.9,19.5,15.9,19.8,16,19.9L16,19.9z M16.3,19.2L16.3,19.2c-0.2,0-0.3,0.1-0.3,0.2
						c-0.1,0.1-0.1,0.3,0,0.4c-0.1-0.1,0-0.3,0-0.4l0,0C16.1,19.2,16.3,19.2,16.3,19.2C16.4,19.2,16.4,19.2,16.3,19.2z"/>
				</g>
			</g>
			<g>
				<ellipse class="st5" cx="14.4" cy="18.9" rx="0.4" ry="0.4"/>
				<g>
					<path class="st11" d="M14.2,18.7c0.1-0.2,0.4-0.3,0.5-0.1l0,0l0,0C14.5,18.4,14.3,18.5,14.2,18.7c-0.2,0.2-0.1,0.4,0,0.5
						C14.1,19.1,14,18.8,14.2,18.7z"/>
					<path class="st11" d="M14.2,19.2c-0.2-0.1-0.2-0.4-0.1-0.5c0.1-0.1,0.2-0.2,0.3-0.2s0.2,0,0.3,0l0,0l0,0l0,0
						c-0.2-0.1-0.4,0-0.5,0.1l0,0C14,18.8,14.1,19.1,14.2,19.2L14.2,19.2z M14.5,18.5C14.4,18.5,14.4,18.5,14.5,18.5
						c-0.2,0-0.3,0.1-0.3,0.2c-0.1,0.1-0.1,0.3,0,0.4c-0.1-0.1,0-0.3,0-0.4l0,0C14.3,18.5,14.5,18.5,14.5,18.5S14.5,18.5,14.5,18.5z
						"/>
				</g>
			</g>
			<g>
				<ellipse class="st5" cx="13.4" cy="19.3" rx="0.4" ry="0.4"/>
				<g>
					<path class="st11" d="M13.2,19.1c0.1-0.2,0.4-0.3,0.5-0.1l0,0l0,0C13.5,18.8,13.3,18.9,13.2,19.1c-0.2,0.2-0.1,0.4,0,0.5
						C13,19.5,13,19.3,13.2,19.1z"/>
					<path class="st11" d="M13.2,19.6c-0.2-0.1-0.2-0.4-0.1-0.5c0.1-0.2,0.4-0.3,0.5-0.1l0,0l0,0l0,0c-0.2-0.1-0.4,0-0.5,0.1l0,0
						C13,19.3,13.1,19.5,13.2,19.6L13.2,19.6z M13.5,18.9c-0.1,0-0.3,0.1-0.3,0.2c-0.1,0.1-0.1,0.3,0,0.4c-0.1-0.1,0-0.3,0-0.4l0,0
						l0,0C13.3,18.9,13.5,18.9,13.5,18.9S13.5,18.9,13.5,18.9z"/>
				</g>
			</g>
			<polygon class="st12" points="15.5,22.8 15.6,23.8 16,24 16.4,23.7 15.9,23.6 			"/>
			<g>
				<g>
					<polygon class="st13" points="17.6,13.4 18,13.3 18.6,13.5 18.2,13.8 					"/>
					<g>
						<path class="st13" d="M21.9,15.6v0.5c0,0.2-0.2,0.3-0.4,0.2L19,14.9c-0.2-0.1-0.3-0.3-0.3-0.4v-0.6c0-0.2-0.1-0.3-0.2-0.4
							L18,13.3c-0.1,0-0.1,0-0.1,0.1l-0.1,1.7c0,0.3,0.2,0.7,0.5,0.8l2.8,1.9c0.6,0.3,1.6-0.3,1.6-1v-0.6c0-0.2-0.1-0.3-0.2-0.4
							L21.9,15.6C22,15.4,21.9,15.5,21.9,15.6z"/>
						<polygon class="st13" points="21.6,15.6 22,15.5 22.6,15.8 22.3,16 						"/>
						<path class="st14" d="M21.5,15.8v0.5c0,0.2-0.2,0.3-0.4,0.2l-2.5-1.4c-0.2-0.1-0.3-0.3-0.3-0.4v-0.6c0-0.2-0.1-0.3-0.2-0.4
							l-0.5-0.2c-0.1,0-0.1,0-0.1,0.1v1.3c0,0.6,0.3,1.1,0.8,1.4l2.8,1.5c0.6,0.3,1.3-0.1,1.3-0.8v-0.6c0-0.2-0.1-0.3-0.2-0.4
							l-0.5-0.2C21.6,15.6,21.5,15.7,21.5,15.8z"/>
					</g>
				</g>
				<polygon class="st15" points="17.5,14.4 18.4,14.9 21.3,16.5 22.4,17 21.3,17.5 20,16.9 17.3,15.5 16.6,14.7 				"/>
				<path class="st13" d="M22.4,17l-1.2,0.6c0,0,0.1,0.3-0.3,0.7l1.3-0.6l0.4-0.5L22.4,17z"/>
			</g>
			<path class="st16" d="M8.9,23c0.5,0.2,1,0.5,1.5,0.7c0.3,0.1,0.5,0.2,0.8,0.4l0.7,0.4l0.7,0.4c0.2,0.1,0.5,0.3,0.7,0.4
				c0.5,0.3,1,0.5,1.5,0.8c-0.5-0.2-1-0.5-1.5-0.7c-0.3-0.1-0.5-0.2-0.8-0.4l-0.6-0.5l-0.7-0.4c-0.2-0.1-0.5-0.3-0.7-0.4
				C9.9,23.5,9.4,23.2,8.9,23z"/>
			<g>
				<polygon class="st13" points="16.1,14.1 16.5,13.9 17.1,14.2 16.8,14.4 				"/>
				<g>
					<path class="st13" d="M20.4,16.3v0.5c0,0.2-0.2,0.3-0.4,0.2l-2.5-1.4c-0.2-0.1-0.3-0.3-0.3-0.4v-0.6c0-0.2-0.1-0.3-0.2-0.4
						L16.5,14c-0.1,0-0.1,0-0.1,0.1l-0.1,1.7c0,0.3,0.2,0.7,0.5,0.8l2.8,1.9c0.6,0.3,1.6-0.3,1.6-1v-0.6c0-0.2-0.1-0.3-0.2-0.4
						L20.4,16.3C20.5,16.1,20.4,16.2,20.4,16.3z"/>
					<polygon class="st13" points="20.1,16.3 20.5,16.1 21.2,16.4 20.8,16.6 					"/>
					<path class="st14" d="M20,16.4v0.5c0,0.2-0.2,0.3-0.4,0.2l-2.5-1.4c-0.2-0.1-0.3-0.3-0.3-0.4v-0.6c0-0.2-0.1-0.3-0.2-0.4
						l-0.5-0.2c-0.1,0-0.1,0-0.1,0.1v1.3c0,0.6,0.3,1.1,0.8,1.4l2.8,1.5c0.6,0.3,1.3-0.1,1.3-0.8V17c0-0.2-0.1-0.3-0.2-0.4l-0.5-0.2
						C20.2,16.3,20,16.3,20,16.4z"/>
				</g>
			</g>
			<path class="st16" d="M24.2,18.7c-0.4,0.2-0.8,0.4-1.2,0.6c-0.2,0.1-0.4,0.2-0.6,0.3c-0.2,0.1-0.4,0.2-0.6,0.3
				c-0.1,0.1-0.2,0.1-0.3,0.2c-0.1,0.1-0.2,0.1-0.3,0.2c-0.2,0.1-0.3,0.3-0.5,0.4c-0.3,0.3-0.6,0.7-0.8,1l-0.8,1l-0.4,0.5l-0.2,0.3
				l-0.2,0.3c-0.6,0.7-1.1,1.3-1.7,2c0.5-0.7,1-1.4,1.6-2.1c0.3-0.3,0.5-0.7,0.8-1c0.3-0.3,0.5-0.7,0.8-1c0.3-0.3,0.6-0.7,0.8-1
				c0.1-0.2,0.3-0.3,0.5-0.5c0.1-0.1,0.2-0.1,0.3-0.2c0.1-0.1,0.2-0.1,0.3-0.2c0.2-0.1,0.4-0.2,0.6-0.3c0.2-0.1,0.4-0.2,0.6-0.3
				C23.3,19,23.8,18.8,24.2,18.7z"/>
			<polygon points="16.6,20.7 16.6,20.7 16.8,20.4 16.6,20.4 16.6,20.4 16.9,20.4 			"/>
			<path d="M16.3,19.8L16,19.6h0.3c0.1,0,0.1,0,0.1-0.1v-0.1h-0.1l0,0c0,0,0.1-0.1,0.2,0c0,0,0.1,0.1,0.1,0.2c0,0,0,0.1-0.1,0.1
				L16.3,19.8L16.3,19.8L16.3,19.8z"/>
			<path d="M14.4,19.1L14.4,19.1L14.4,19.1l-0.2-0.2l0.5-0.2L14.4,19.1L14.4,19.1L14.4,19.1L14.4,19.1L14.4,19.1z M14.3,18.9
				L14.3,18.9l0.2-0.1L14.3,18.9z"/>
			<path d="M13.4,19.5L13.4,19.5c-0.1,0-0.2,0-0.2-0.2h0.1C13.3,19.4,13.4,19.4,13.4,19.5L13.4,19.5L13.4,19.5
				C13.4,19.4,13.5,19.5,13.4,19.5c0.1-0.1,0.1-0.1,0.1-0.2l-0.1-0.1h-0.1l0.2-0.2l0.2,0.1v0.1l-0.2-0.1l-0.1,0.1c0,0,0.1,0,0.1,0.1
				L13.4,19.5C13.6,19.5,13.5,19.5,13.4,19.5L13.4,19.5z"/>
			<polygon points="12.1,21.7 12.1,21.7 12.5,21.4 12.3,21.3 12.3,21.2 12.6,21.4 			"/>
			<path d="M14.3,23.6L14.3,23.6C14.2,23.6,14.2,23.5,14.3,23.6c-0.1-0.2-0.1-0.2,0-0.3l0,0c0-0.1,0.1-0.1,0.1-0.1
				c0.1,0,0.1,0,0.1,0l0.1,0.1c0,0.1,0,0.1-0.1,0.2C14.5,23.5,14.4,23.6,14.3,23.6C14.4,23.6,14.3,23.6,14.3,23.6z M14.4,23.2
				L14.4,23.2c-0.1,0-0.1,0.1-0.2,0.1l0,0c0,0.1,0,0.1,0,0.2v0.1h0.1l0.1-0.1C14.5,23.4,14.5,23.3,14.4,23.2
				C14.5,23.3,14.5,23.2,14.4,23.2C14.5,23.2,14.5,23.2,14.4,23.2z"/>
			<g>
				<path d="M12.6,22.4C12.5,22.4,12.5,22.4,12.6,22.4l-0.1-0.2c0,0,0-0.1,0.1-0.1l0,0h0.1c0,0,0.1,0,0.1,0.1v0.1
					C12.7,22.4,12.7,22.4,12.6,22.4L12.6,22.4z M12.6,22.2L12.6,22.2L12.6,22.2C12.5,22.2,12.5,22.3,12.6,22.2L12.6,22.2
					C12.5,22.3,12.5,22.3,12.6,22.2L12.6,22.2C12.7,22.3,12.7,22.3,12.6,22.2C12.6,22.3,12.6,22.2,12.6,22.2L12.6,22.2z"/>
				<path d="M12.5,22.7c-0.1,0-0.1,0-0.2-0.1c0-0.1,0-0.2,0.1-0.2l0,0c0.1,0,0.2,0,0.2,0.1C12.7,22.6,12.6,22.7,12.5,22.7L12.5,22.7
					z M12.4,22.4C12.3,22.4,12.3,22.5,12.4,22.4c-0.1,0.1-0.1,0.2,0,0.2h0.1c0,0,0.1,0,0.1-0.1v-0.1C12.6,22.5,12.5,22.4,12.4,22.4
					C12.5,22.4,12.5,22.4,12.4,22.4L12.4,22.4z"/>
			</g>
			<g>
				<path d="M13.3,23.3C13.2,23.3,13.2,23.3,13.3,23.3l-0.1-0.2l0.1-0.1h0.1l0.1,0.1C13.4,23.2,13.4,23.3,13.3,23.3L13.3,23.3z
					 M13.3,23C13.3,23,13.2,23,13.3,23C13.2,23,13.2,23.1,13.3,23C13.2,23.1,13.2,23.1,13.3,23c-0.1,0.1-0.1,0.1-0.1,0.2
					c0,0,0,0,0.1,0C13.3,23.2,13.4,23.2,13.3,23L13.3,23C13.3,23.1,13.3,23.1,13.3,23L13.3,23z"/>
				<path d="M13.2,23.5C13.2,23.5,13.1,23.5,13.2,23.5c-0.1,0-0.1,0-0.2-0.1c0-0.1,0-0.1,0-0.1h0.1C13.1,23.3,13.1,23.3,13.2,23.5
					C13.1,23.4,13.1,23.4,13.2,23.5C13.2,23.4,13.2,23.4,13.2,23.5c0.1-0.1,0.2-0.2,0.2-0.3h0.1C13.4,23.2,13.3,23.4,13.2,23.5
					L13.2,23.5z"/>
			</g>
			<g>
				<path d="M12.6,20.5C12.5,20.5,12.5,20.5,12.6,20.5C12.5,20.5,12.5,20.4,12.6,20.5L12.6,20.5l-0.1-0.2l0.1-0.1
					c0.1,0,0.2,0,0.2,0.1v0.1C12.7,20.4,12.6,20.5,12.6,20.5L12.6,20.5z M12.6,20.2L12.6,20.2C12.5,20.2,12.5,20.3,12.6,20.2
					L12.6,20.2c-0.1,0.1-0.1,0.1-0.1,0.2c0,0,0,0,0.1,0s0,0,0.1,0C12.7,20.3,12.7,20.3,12.6,20.2C12.7,20.3,12.7,20.2,12.6,20.2
					L12.6,20.2z"/>
				<path d="M12.5,20.3L12.5,20.3c-0.1,0,0-0.2,0.1-0.3h0.1c0.1,0,0.1,0,0.1,0.1h-0.1c0,0,0,0-0.1-0.1c0,0,0,0-0.1,0
					C12.6,20.1,12.5,20.2,12.5,20.3z"/>
			</g>
			<path d="M15.5,19.2L15.5,19.2c-0.1,0-0.2-0.1-0.2-0.2h0.1C15.4,19,15.4,19.1,15.5,19.2C15.5,19.1,15.6,19.1,15.5,19.2
				C15.6,19.1,15.6,19.1,15.5,19.2V19l0,0v-0.1l0,0c0,0,0,0,0.1,0h0.1v-0.1l0,0h-0.1l0,0c0,0,0.1-0.1,0.2,0l0,0v0.1L15.6,19
				c0,0,0,0,0,0.1C15.6,19.1,15.6,19.2,15.5,19.2C15.6,19.2,15.6,19.2,15.5,19.2z"/>
		</g>
		<path class="st16" d="M17.9,34.2C18,34.1,18,34,18.1,34c0.1-0.1,0.1-0.1,0.2-0.2c0.2-0.1,0.3-0.3,0.5-0.4c0.3-0.2,0.7-0.4,1.1-0.5
			c0.2-0.1,0.4-0.1,0.6-0.1l0,0l0,0h0.1c0.1,0,0.1,0,0.2,0H21h0.2c0.1,0,0.1,0,0.2,0s0.1,0,0.2,0c0.1,0,0.2,0,0.3,0.1
			c0.2,0,0.4,0.1,0.6,0.2c-0.2,0-0.4-0.1-0.6-0.1c-0.1,0-0.2,0-0.3,0h-0.1h-0.1c-0.4,0-0.8,0.1-1.2,0.2c-0.2,0.1-0.4,0.1-0.6,0.2
			s-0.4,0.2-0.5,0.3c-0.2,0.1-0.3,0.2-0.5,0.3c-0.1,0.1-0.2,0.1-0.2,0.2C18.1,34,18,34.1,17.9,34.2z"/>
		<g>
			<path class="st8" d="M15.7,37.3c0,0-1.2-0.5-0.8-2.4c0,0,0.3-1.2,1.8-1.8c1.4-0.6,2.9-1,2.9-1s2.7-0.5,4.1-0.3
				c1.5,0.2,2.2,0.5,2.5,1.4l0.1,0.8l-3,0.7l-0.5-1.2c0,0-2-1.1-4.8,1.1l0.3,0.7L15.7,37.3z"/>
			<ellipse transform="matrix(0.9875 -0.1573 0.1573 0.9875 -5.0937 4.3013)" class="st7" cx="24.6" cy="34.3" rx="1.6" ry="0.6"/>
			<ellipse transform="matrix(0.9875 -0.1573 0.1573 0.9875 -5.1091 4.3028)" class="st9" cx="24.6" cy="34.4" rx="1.2" ry="0.5"/>
			
				<ellipse transform="matrix(0.7868 -0.6172 0.6172 0.7868 -18.7586 18.1635)" class="st7" cx="16.9" cy="36.2" rx="1.7" ry="0.4"/>
			<ellipse transform="matrix(0.7868 -0.6172 0.6172 0.7868 -18.814 18.1852)" class="st9" cx="16.9" cy="36.3" rx="1" ry="0.2"/>
			<path class="st7" d="M18,34.6c0,0,0.1,0.3,0,0.2c-0.7-0.4,1.4-1.6,2.2-1.8c0.4-0.1,3.2-0.4,2.8,1l-0.1-0.5c0,0-1-0.6-2.7-0.1
				C20.2,33.4,19.2,33.6,18,34.6z"/>
		</g>
	</g>
</g>
</svg>
