<?xml version="1.0" encoding="utf-8"?>
<!-- Generator: Adobe Illustrator 23.1.1, SVG Export Plug-In . SVG Version: 6.00 Build 0)  -->
<svg version="1.1" id="Calque_1" xmlns="http://www.w3.org/2000/svg" xmlns:xlink="http://www.w3.org/1999/xlink" x="0px" y="0px"
	 viewBox="0 0 43.6 37.5" style="enable-background:new 0 0 43.6 37.5;" xml:space="preserve">
<style type="text/css">
	.st0{fill:#C10741;}
	.st1{fill:#F52B5D;}
	.st2{fill:#D01242;}
	.st3{opacity:0.42;fill:#C10741;enable-background:new    ;}
	.st4{fill:#F41B49;}
	.st5{fill:#56EBEE;}
	.st6{fill:#26A5A8;}
	.st7{fill:#2EC9D9;}
	.st8{fill:#E75D12;}
	.st9{fill:#F4701E;}
	.st10{fill:#371A09;}
	.st11{fill:#5A2A0E;}
	.st12{fill:#EAD400;}
	.st13{fill:#237E00;}
	.st14{fill:#A10A0C;}
	.st15{fill:#C1120B;}
	.st16{fill:#F88831;}
	.st17{fill:#EEEEEE;}
	.st18{fill:#DFDFDF;}
	.st19{fill:#FCCA00;}
	.st20{fill:#FAAC00;}
	.st21{fill:#F99E00;}
	.st22{fill:#281652;}
	.st23{fill:#331488;}
	.st24{opacity:0.4;fill:#AC1222;enable-background:new    ;}
	.st25{opacity:0.31;fill:#FFFFFF;enable-background:new    ;}
	.st26{fill:#FFFFFF;}
</style>
<g>
	<g>
		<polygon class="st0" points="8.1,9.3 9,9.3 8.8,5.7 13.1,3.3 13.5,7 14.4,6.9 13.9,1.8 7.8,5.2 		"/>
		<polygon class="st1" points="14.7,16.7 5.2,21.4 6.3,8.4 15.6,3.6 		"/>
		<polygon class="st2" points="21.5,20.1 14.7,16.7 15.6,3.6 20.5,6.1 		"/>
		<polygon class="st2" points="12.1,24.8 5.2,21.4 6.3,8.4 11.3,10.9 		"/>
		<polygon class="st0" points="12.1,24.8 10.8,22.6 7.8,21.1 5.2,21.4 		"/>
		
			<rect x="2.7" y="15.4" transform="matrix(0.1082 -0.9941 0.9941 0.1082 -7.8167 22.1537)" class="st3" width="11.5" height="0.1"/>
		<rect x="9.9" y="9.7" transform="matrix(0.9911 -0.1328 0.1328 0.9911 -2.0627 1.4648)" class="st3" width="0.1" height="13"/>
		<polygon class="st4" points="21.5,20.1 12.1,24.8 11.3,10.9 20.5,6.1 		"/>
		<polygon class="st0" points="12.7,11.2 13.6,11.1 13.3,7.6 17.7,5.1 18.1,8.9 19,8.8 18.4,3.7 12.4,7.1 		"/>
		<polygon class="st4" points="19.1,7.8 18,8.3 18,9.7 19.1,9.2 		"/>
		<polygon class="st4" points="13.8,10.5 12.6,11 12.6,12.3 13.8,11.9 		"/>
	</g>
	<g>
		<g>
			<polygon class="st5" points="6.3,29.4 26.2,19.4 39.3,26 19.6,36 			"/>
			<polygon class="st6" points="8,29.5 7.9,29.2 26.4,20 38,25.7 37.9,26 26.4,20.4 			"/>
			<polygon class="st7" points="8.1,29.4 26.4,20.3 37.9,26 19.8,35.1 			"/>
			<polygon class="st6" points="6.3,29.4 6.3,30.1 19.6,36.8 19.6,36 			"/>
			<polygon class="st7" points="19.6,36 19.6,36.8 39.3,26.9 39.3,26 			"/>
		</g>
		<g>
			<g>
				<path class="st8" d="M31.2,24.7c0,1.6-1.9,2.7-4.3,2.7s-4.3-1-4.3-2.7c0-1.4,1.9-2.2,4.3-2.2S31.1,23.4,31.2,24.7z"/>
				<ellipse class="st9" cx="26.9" cy="24.5" rx="4.3" ry="2.4"/>
			</g>
			<g>
				<path class="st10" d="M31,24.1c0,1.6-1.9,2.6-4.2,2.6s-4.1-1-4.2-2.6c0-1.3,1.9-2.1,4.2-2.1S31,22.8,31,24.1z"/>
				<ellipse class="st11" cx="26.9" cy="23.5" rx="4.2" ry="2.3"/>
			</g>
			<path class="st12" d="M22.9,23.9l0.8-1.7c0.1-0.3,0.4-0.4,0.7-0.5l4.2-0.2c0.2,0,0.4,0.1,0.5,0.2c0.4,0.4,1.3,1.1,1.8,1.8
				c0.5,0.6-0.2,1.6-1,1.2l0,0c-0.4-0.2-0.8-0.1-1,0.3c-0.3,0.5-0.7,1.2-0.8,1.6c0,0.1-0.1,0.1-0.1,0.1c-0.3-0.1-1-0.4-1.5-1
				c-0.3-0.4-0.8-0.4-1.2-0.1c-0.1,0.1-0.1,0.1-0.2,0.2c-0.3,0.3-0.8,0.4-1.1,0.1c-0.4-0.3-0.8-0.7-1.1-1
				C22.9,24.5,22.8,24.2,22.9,23.9z"/>
			<g>
				<path class="st13" d="M29.1,25.5c0.3,0.1,0.8-0.1,0.8-0.5c0-0.1,0-0.3,0-0.4c0.1-0.6,1-0.8,1.3-1.3c0.2-0.3,0.1-0.8-0.1-1.1
					c-0.3-0.3-0.7-0.3-1.1-0.1c-0.1,0.1-0.3,0.2-0.4,0.1c-0.2-0.1-0.1-0.3-0.2-0.5c-0.1-0.3-0.5-0.5-0.8-0.5s-0.7,0-1-0.3
					c-0.1-0.1-0.1-0.2-0.2-0.3c-0.1-0.1-0.3-0.1-0.4-0.2c-0.6-0.1-1.1-0.2-1.7-0.1c-0.1,0-0.2,0-0.3,0c-0.3,0.2-0.2,0.7-0.6,0.9
					c-0.2,0.1-0.4-0.1-0.6-0.1c-0.3,0-0.7,0.3-0.6,0.7c0,0.2,0.2,0.5,0.1,0.7s-0.4,0.3-0.6,0.4c-0.3,0.2-0.4,0.7-0.2,1
					c0.2,0.3,0.6,0.6,1,0.6s0.7-0.1,1,0c0.5,0.2,0.6,0.8,1,1.1c0.5,0.3,1.1-0.1,1.7-0.1c0.3,0,0.6,0.1,0.9,0.1
					C28.5,25.8,28.8,25.8,29.1,25.5"/>
			</g>
			<g>
				<path class="st14" d="M26.1,24.9c-0.1,0.5-0.8,0.6-1.5,0.4s-1.2-0.7-1-1.2c0.1-0.4,0.8-0.5,1.5-0.2S26.2,24.5,26.1,24.9z"/>
				<ellipse transform="matrix(0.3061 -0.952 0.952 0.3061 -6.0685 40.5512)" class="st15" cx="24.8" cy="24.4" rx="0.8" ry="1.4"/>
			</g>
			<g>
				<path class="st14" d="M30.3,24.1c0.2,0.5-0.3,1-1.1,1.2c-0.7,0.2-1.4,0.1-1.5-0.4c-0.1-0.4,0.4-0.8,1.1-1.1
					C29.5,23.6,30.2,23.7,30.3,24.1z"/>
				<ellipse transform="matrix(0.9565 -0.2917 0.2917 0.9565 -5.855 9.5208)" class="st15" cx="29" cy="24.4" rx="1.4" ry="0.8"/>
			</g>
			<g>
				<path class="st14" d="M28.4,24.8c0,0.5-0.7,0.9-1.5,0.8c-0.8,0-1.4-0.4-1.4-1c0-0.4,0.7-0.7,1.5-0.7
					C27.8,24.1,28.4,24.4,28.4,24.8z"/>
				
					<ellipse transform="matrix(4.272238e-02 -0.9991 0.9991 4.272238e-02 1.1135 50.5975)" class="st15" cx="27" cy="24.7" rx="0.8" ry="1.4"/>
			</g>
			<path class="st8" d="M31.2,21.9c0,1.6-1.9,2.7-4.3,2.7s-4.3-1-4.3-2.7c0-1.4,1.9-2.2,4.3-2.2S31.1,20.5,31.2,21.9z"/>
			<path class="st9" d="M31.2,21.4c0,1.4-1.9,2.4-4.3,2.4s-4.3-1.1-4.3-2.4s1.5-3.2,4.4-3.2C29.8,18.3,31.2,20.1,31.2,21.4z"/>
			<g>
				<path class="st16" d="M24.7,21.3c0,0.1-0.1,0.1-0.2,0.1s-0.1-0.1-0.1-0.2s0.2-0.2,0.3-0.2S24.8,21.2,24.7,21.3z"/>
				<path class="st16" d="M25.3,20.1c0,0.1-0.1,0.1-0.2,0.1S25,20.1,25,20s0.2-0.2,0.3-0.2C25.4,19.8,25.4,20,25.3,20.1z"/>
				<path class="st16" d="M25.1,20.6c0,0.1-0.1,0.1-0.2,0.1s-0.1-0.1-0.1-0.2s0.2-0.2,0.3-0.2C25.1,20.3,25.1,20.6,25.1,20.6z"/>
				<path class="st16" d="M25,22c0,0.1-0.1,0.1-0.2,0.1s-0.1-0.1-0.1-0.2s0.2-0.2,0.3-0.2C25.1,21.7,25,21.9,25,22z"/>
				<path class="st16" d="M24,21.5c0,0.1-0.1,0.1-0.2,0.1s-0.1-0.1-0.1-0.2s0.2-0.2,0.3-0.2S24,21.4,24,21.5z"/>
				<path class="st16" d="M24.2,20.9C24.1,21,24,21,24,20.9c-0.1-0.1-0.1-0.1,0-0.2s0.2-0.1,0.3-0.1C24.3,20.7,24.2,20.9,24.2,20.9z
					"/>
				<path class="st16" d="M24.5,20.3c-0.1,0.1-0.1,0.1-0.2,0s-0.1-0.1,0-0.2s0.2-0.1,0.3-0.1C24.7,20,24.6,20.2,24.5,20.3z"/>
				<path class="st16" d="M25.6,21.5c0,0.1-0.1,0.1-0.1,0.1l-0.1-0.1c0,0,0.1-0.3,0.2-0.3S25.6,21.4,25.6,21.5z"/>
				<path class="st16" d="M25.9,20.9c0,0.1-0.1,0.1-0.1,0.1l-0.1-0.1c0-0.1,0.1-0.3,0.2-0.3C25.8,20.6,25.9,20.8,25.9,20.9z"/>
				<path class="st16" d="M23.4,20.9c0,0.1-0.1,0.1-0.2,0.1s-0.1-0.1-0.1-0.2s0.2-0.2,0.3-0.2C23.5,20.6,23.4,20.9,23.4,20.9z"/>
				<path class="st16" d="M26,22.4c0,0.1-0.1,0.1-0.2,0.1s-0.1-0.1-0.1-0.2s0.2-0.2,0.3-0.2S26,22.3,26,22.4z"/>
				<path class="st16" d="M26.2,21.7c0,0.1,0,0.2-0.1,0.2s-0.2,0-0.2-0.1s0-0.3,0.1-0.3C26.1,21.5,26.2,21.6,26.2,21.7z"/>
				<path class="st16" d="M23.5,20.2c-0.1,0-0.1,0.1-0.1,0.2s0.1,0.1,0.2,0.1s0.2-0.2,0.2-0.2C23.7,20.1,23.5,20.1,23.5,20.2z"/>
			</g>
			<path class="st16" d="M28.8,21.1c0,0.1,0,0.2,0,0.2c-0.1,0-0.2,0-0.2,0c0-0.1-0.1-0.3-0.1-0.3C28.6,20.9,28.8,21.1,28.8,21.1z"/>
			<path class="st16" d="M28,20.1c0,0.1,0,0.2,0,0.2h-0.2c0-0.1-0.1-0.3-0.1-0.3C27.8,19.9,28,20,28,20.1z"/>
			<path class="st16" d="M28.4,20.5c0,0.1,0,0.2,0,0.2c-0.1,0-0.2,0-0.2,0c0-0.1-0.1-0.3-0.1-0.3S28.3,20.5,28.4,20.5z"/>
			<path class="st16" d="M29.6,21.2c0,0.1,0,0.2,0,0.2c-0.1,0-0.2,0-0.2,0c0-0.1-0.1-0.3-0.1-0.3C29.3,21,29.5,21.1,29.6,21.2z"/>
			<path class="st16" d="M28.7,21.9c0,0.1,0,0.2,0,0.2c-0.1,0-0.2,0-0.2,0c0-0.1-0.1-0.3-0.1-0.3C28.5,21.7,28.6,21.9,28.7,21.9z"/>
			<path class="st16" d="M27,22.4c0,0.1-0.1,0.1-0.2,0.1s-0.1-0.1-0.1-0.2s0.1-0.3,0.2-0.3C27,22.1,27,22.3,27,22.4z"/>
			<path class="st16" d="M28.2,21.5c0,0.1,0,0.2-0.1,0.2s-0.2,0-0.2-0.1s0-0.3,0.1-0.3C28.1,21.2,28.2,21.4,28.2,21.5z"/>
			<path class="st16" d="M27.8,20.9c0,0.1,0,0.2-0.1,0.2s-0.2,0-0.2-0.1s0-0.3,0.1-0.3C27.7,20.7,27.8,20.8,27.8,20.9z"/>
			<path class="st16" d="M29.4,20.5c0.1,0,0.1,0.1,0.1,0.2s-0.1,0.1-0.2,0.1s-0.2-0.2-0.2-0.3C29.1,20.4,29.3,20.5,29.4,20.5z"/>
			<path class="st16" d="M29,20c0.1,0,0.1,0.1,0.1,0.2s-0.1,0.1-0.2,0.1S28.6,20,28.7,20S28.9,19.9,29,20z"/>
			<path class="st16" d="M27.9,22.2c0,0.1,0,0.2,0,0.2c-0.1,0-0.2,0-0.2,0c0-0.1-0.1-0.3-0.1-0.3C27.7,22,27.9,22.1,27.9,22.2z"/>
			<path class="st16" d="M30.4,20.5c0,0.1,0,0.2,0,0.2c-0.1,0-0.2,0-0.2,0c0-0.1-0.1-0.3-0.1-0.3C30.2,20.3,30.3,20.5,30.4,20.5z"/>
			<path class="st16" d="M29.9,20c0.1,0,0.1,0.1,0.1,0.2s-0.1,0.1-0.2,0.1s-0.3-0.1-0.2-0.2S29.8,20,29.9,20z"/>
			<path class="st16" d="M27.3,21.8c0,0.1,0.1,0.1,0.1,0.2c0.1,0,0.1-0.1,0.2-0.1c0-0.1,0-0.3-0.1-0.3
				C27.4,21.5,27.3,21.7,27.3,21.8z"/>
			<path class="st16" d="M27.2,20.8c0,0.1,0,0.2-0.1,0.2S27,21,27,20.9s0-0.3,0.1-0.3C27.1,20.5,27.2,20.7,27.2,20.8z"/>
			<path class="st16" d="M26.8,20.2c0,0.1,0,0.2-0.1,0.2s-0.2,0-0.2-0.1s0-0.3,0.1-0.3C26.7,20,26.8,20.1,26.8,20.2z"/>
			<path class="st16" d="M26.3,21.1c0,0.1,0.1,0.1,0.1,0.2c0.1,0,0.1-0.1,0.2-0.1c0-0.1,0-0.3-0.1-0.3C26.3,20.8,26.3,21,26.3,21.1z
				"/>
		</g>
		<g>
			<polygon class="st17" points="24.7,25 23.2,24.2 23.3,31.6 24.5,31 			"/>
			<polygon class="st18" points="23.2,24.2 18.5,26.3 18.9,32.5 23.3,30.2 			"/>
			<g>
				<polygon class="st19" points="23.1,28.4 23.3,22.9 23.6,23.1 23.5,28.6 				"/>
				<polygon class="st20" points="23.6,23.1 23.9,22.9 23.8,28.4 23.5,28.6 				"/>
				<polygon class="st21" points="23.9,22.9 23.6,22.7 23.3,22.9 23.6,23.1 				"/>
			</g>
			<g>
				<polygon class="st19" points="23.6,29.1 24,23.6 24.3,23.8 23.9,29.3 				"/>
				<polygon class="st20" points="24.3,23.8 24.7,23.6 24.2,29.1 23.9,29.3 				"/>
				<polygon class="st21" points="24.7,23.6 24.3,23.4 24,23.6 24.3,23.8 				"/>
			</g>
			<g>
				<polygon class="st19" points="22.5,29.1 23.1,23.6 23.4,23.8 22.8,29.3 				"/>
				<polygon class="st20" points="23.4,23.8 23.7,23.6 23.2,29.1 22.8,29.3 				"/>
				<polygon class="st21" points="23.7,23.6 23.4,23.4 23.1,23.6 23.4,23.8 				"/>
			</g>
			<g>
				<polygon class="st19" points="22.3,28.3 22.5,22.7 22.8,22.9 22.6,28.4 				"/>
				<polygon class="st20" points="22.8,22.9 23.1,22.8 23,28.3 22.6,28.4 				"/>
				<polygon class="st21" points="23.1,22.8 22.8,22.6 22.5,22.7 22.8,22.9 				"/>
			</g>
			<g>
				<polygon class="st19" points="23.2,29.6 23.4,24.1 23.7,24.3 23.5,29.8 				"/>
				<polygon class="st20" points="23.7,24.3 24,24.1 23.9,29.7 23.5,29.8 				"/>
				<polygon class="st21" points="24,24.1 23.7,24 23.4,24.1 23.7,24.3 				"/>
			</g>
			<g>
				<polygon class="st19" points="21.9,29.4 22.1,23.9 22.4,24.1 22.2,29.6 				"/>
				<polygon class="st20" points="22.4,24.1 22.7,23.9 22.6,29.4 22.2,29.6 				"/>
				<polygon class="st21" points="22.7,23.9 22.4,23.7 22.1,23.9 22.4,24.1 				"/>
			</g>
			<g>
				<polygon class="st19" points="21.2,28.5 22,23 22.3,23.2 21.5,28.7 				"/>
				<polygon class="st20" points="22.3,23.2 22.6,23.1 21.8,28.6 21.5,28.7 				"/>
				<polygon class="st21" points="22.6,23.1 22.3,22.9 22,23 22.3,23.2 				"/>
			</g>
			<g>
				<polygon class="st19" points="22.6,30.1 22.7,24.6 23.1,24.8 22.9,30.3 				"/>
				<polygon class="st20" points="23.1,24.8 23.4,24.6 23.2,30.1 22.9,30.3 				"/>
				<polygon class="st21" points="23.4,24.6 23,24.4 22.7,24.6 23.1,24.8 				"/>
			</g>
			<g>
				<polygon class="st19" points="21.8,30 21.9,24.5 22.3,24.6 22.1,30.2 				"/>
				<polygon class="st20" points="22.3,24.6 22.6,24.5 22.4,30 22.1,30.2 				"/>
				<polygon class="st21" points="22.6,24.5 22.2,24.3 21.9,24.5 22.3,24.6 				"/>
			</g>
			<g>
				<polygon class="st19" points="20.9,29.5 21,24 21.4,24.1 21.2,29.7 				"/>
				<polygon class="st20" points="21.4,24.1 21.7,24 21.5,29.5 21.2,29.7 				"/>
				<polygon class="st21" points="21.7,24 21.3,23.8 21,24 21.4,24.1 				"/>
			</g>
			<g>
				<polygon class="st19" points="21.3,30.4 21.4,24.9 21.8,25.1 21.6,30.6 				"/>
				<polygon class="st20" points="21.8,25.1 22.1,24.9 21.9,30.5 21.6,30.6 				"/>
				<polygon class="st21" points="22.1,24.9 21.7,24.8 21.4,24.9 21.8,25.1 				"/>
			</g>
			<g>
				<polygon class="st19" points="20.4,29.4 20.5,23.9 20.8,24.1 20.7,29.6 				"/>
				<polygon class="st20" points="20.8,24.1 21.2,23.9 21,29.4 20.7,29.6 				"/>
				<polygon class="st21" points="21.2,23.9 20.8,23.7 20.5,23.9 20.8,24.1 				"/>
			</g>
			<g>
				<polygon class="st19" points="21.4,28.8 20.9,23.3 21.3,23.4 21.8,28.9 				"/>
				<polygon class="st20" points="21.3,23.4 21.5,23.3 22,28.7 21.8,28.9 				"/>
				<polygon class="st21" points="21.5,23.3 21.2,23.1 20.9,23.3 21.3,23.4 				"/>
			</g>
			<g>
				<polygon class="st19" points="20,30.2 20.1,24.7 20.4,24.8 20.3,30.4 				"/>
				<polygon class="st20" points="20.4,24.8 20.8,24.7 20.6,30.2 20.3,30.4 				"/>
				<polygon class="st21" points="20.8,24.7 20.4,24.5 20.1,24.7 20.4,24.8 				"/>
			</g>
			<g>
				<polygon class="st19" points="19.6,30.8 19.7,25.3 20,25.5 19.9,31 				"/>
				<polygon class="st20" points="20,25.5 20.4,25.3 20.2,30.8 19.9,31 				"/>
				<polygon class="st21" points="20.4,25.3 20,25.1 19.7,25.3 20,25.5 				"/>
			</g>
			<g>
				<polygon class="st19" points="19.3,30.5 18.8,25 19.2,25.1 19.6,30.6 				"/>
				<polygon class="st20" points="19.2,25.1 19.5,24.9 19.9,30.4 19.6,30.6 				"/>
				<polygon class="st21" points="19.5,24.9 19.1,24.8 18.8,25 19.2,25.1 				"/>
			</g>
			<g>
				<polygon class="st19" points="20.7,30.5 20.3,25 20.6,25.2 21.1,30.7 				"/>
				<polygon class="st20" points="20.6,25.2 20.9,25 21.4,30.5 21.1,30.7 				"/>
				<polygon class="st21" points="20.9,25 20.6,24.8 20.3,25 20.6,25.2 				"/>
			</g>
			<g>
				<polygon class="st19" points="19.8,29.4 19.3,23.9 19.7,24.1 20.1,29.6 				"/>
				<polygon class="st20" points="19.7,24.1 20,23.9 20.4,29.4 20.1,29.6 				"/>
				<polygon class="st21" points="20,23.9 19.6,23.7 19.3,23.9 19.7,24.1 				"/>
			</g>
			<g>
				<polygon class="st19" points="21.4,29.9 22,24.4 22.3,24.6 21.8,30.1 				"/>
				<polygon class="st20" points="22.3,24.6 22.6,24.5 22.1,30 21.8,30.1 				"/>
				<polygon class="st21" points="22.6,24.5 22.3,24.3 22,24.4 22.3,24.6 				"/>
			</g>
			<polygon class="st22" points="18.5,26.3 18.9,32.5 20.2,33.2 20,27.1 			"/>
			<path class="st23" d="M20.2,33.2l4.3-2.2l0.2-6l-0.9,1.9c-0.6,1.3-2.3,1.6-3.4,0.6L20,27.1L20.2,33.2z"/>
		</g>
		<g>
			<path class="st16" d="M13,23.5c0,0,0.5-1.1,2-1c1.5,0,1.9,1,1.9,1v1.9L13,25.3V23.5z"/>
			<path class="st24" d="M13,28.8c0,0,0.3,1.1,1.9,1.1s2-0.9,2-0.9v-6.8c0,0,0-1.3-1.2-2v-0.8h-1.3v0.8c0,0-1.3,0.5-1.3,1.9L13,28.8
				z"/>
			<path class="st25" d="M14.5,20.2c0,0-1.2,0.9-1.1,3.8l0.2,5.5c0,0,0.1,0.1,0.4,0.2L13.8,24c0,0-0.1-2.7,0.8-3.7
				c0.1-0.1-0.1-0.6,0-0.7L14.5,20.2z"/>
			<path class="st25" d="M15.4,20.1c0,0,1.2,0.9,1.1,3.8l-0.2,5.5c0,0,0,0.1-0.2,0.2l0.1-5.8C16.2,23.8,16.3,21.1,15.4,20.1
				C15.3,20.1,15.4,20.1,15.4,20.1z"/>
			<g>
				<path class="st16" d="M13,23.5c0,0,0.4,1,1.9,1s1.9-1,1.9-1V26c0,0-0.3,1-1.9,0.9c-1.7-0.1-1.9-1-1.9-1V23.5z"/>
				<path class="st26" d="M13,23.8c0,0,0.5,1,2,1s1.9-1,1.9-1v0.3c0,0-0.2,0.9-1.9,0.9s-2-1-2-1V23.8z"/>
				<path class="st26" d="M13,25.6c0,0,0.5,1,2,1s1.9-1,1.9-1v0.3c0,0-0.2,0.9-1.9,0.9s-2-1-2-1V25.6z"/>
			</g>
			<g>
				<path class="st16" d="M14.5,19.6c0.2,0.1,0.6,0.3,1,0c0.1-0.1,0.2-0.2,0.2-0.4v-0.5h-1.5v0.5C14.2,19.3,14.3,19.5,14.5,19.6z"/>
				<ellipse class="st9" cx="15" cy="18.7" rx="0.7" ry="0.4"/>
			</g>
		</g>
	</g>
</g>
</svg>
