<?xml version="1.0" encoding="utf-8"?>
<!-- Generator: Adobe Illustrator 23.1.1, SVG Export Plug-In . SVG Version: 6.00 Build 0)  -->
<svg version="1.1" id="Calque_1" xmlns="http://www.w3.org/2000/svg" xmlns:xlink="http://www.w3.org/1999/xlink" x="0px" y="0px"
	 viewBox="0 0 43.6 37.5" style="enable-background:new 0 0 43.6 37.5;" xml:space="preserve">
<style type="text/css">
	.st0{fill:#DE8D6A;}
	.st1{fill:#F2A26A;}
	.st2{fill:#F4C8AB;}
	.st3{fill:#FFFFFF;}
	.st4{opacity:0.69;fill:#532F18;enable-background:new    ;}
	.st5{opacity:0.36;fill:#FFFFFF;enable-background:new    ;}
	.st6{fill:#EB8D6A;}
	.st7{fill:#E8A47E;}
	.st8{fill:#F2B288;}
	.st9{opacity:0.18;fill:#532F18;enable-background:new    ;}
	.st10{fill:#F3B58C;}
	.st11{fill:#DD9364;}
</style>
<g>
	<g>
		<polygon class="st0" points="15,32.1 15,21.9 23.8,17.6 23.8,27.7 		"/>
		<polygon class="st1" points="15,21.9 3.3,16 3.3,26.2 15,32.1 		"/>
		<polygon class="st2" points="3.3,16 12,11.6 23.8,17.6 15,21.9 		"/>
		<polygon class="st3" points="4.3,18.8 4.5,20.4 7.1,21.2 6.8,19.6 		"/>
		<polygon class="st4" points="11.4,21.7 11.4,22.5 13.8,23.7 13.8,22.9 		"/>
		<polygon class="st4" points="13.2,29.3 13.2,30.2 13.8,30.6 13.8,29.6 		"/>
		<polygon class="st4" points="12.4,28.9 12.4,29.8 13.1,30.2 13,29.2 		"/>
		<polygon class="st4" points="11.4,22.7 11.4,23.1 13.8,24.4 13.8,24 		"/>
		<polygon class="st4" points="11.4,23.3 11.4,23.7 13.8,24.9 13.8,24.6 		"/>
		<polygon class="st4" points="7.8,13.7 7.8,13.7 19.2,19.9 19.2,19.9 		"/>
		<polygon class="st5" points="18.6,20.2 18.6,22.8 19.9,22.1 19.9,19.5 8.5,13.4 7.1,14.1 		"/>
	</g>
	<g>
		<polygon class="st6" points="28.6,34.5 28.6,24.3 19.8,20 19.8,30.1 		"/>
		<polygon class="st1" points="28.6,24.3 40.3,18.4 40.3,28.6 28.6,34.5 		"/>
		<polygon class="st2" points="40.3,18.4 31.5,14 19.8,20 28.6,24.3 		"/>
		<polygon class="st3" points="39.3,21.2 39,22.8 36.5,23.6 36.7,22 		"/>
		<polygon class="st4" points="32.1,24.1 32.1,24.9 29.7,26.1 29.7,25.3 		"/>
		<polygon class="st4" points="30.4,31.7 30.3,32.6 29.7,33 29.7,32 		"/>
		<polygon class="st4" points="31.1,31.3 31.1,32.2 30.5,32.6 30.5,31.6 		"/>
		<polygon class="st4" points="32.1,25.1 32.1,25.5 29.7,26.7 29.7,26.4 		"/>
		<polygon class="st4" points="32.1,25.7 32.1,26.1 29.7,27.3 29.7,27 		"/>
		<polygon class="st4" points="24.3,22.1 35.7,16 35.7,16 		"/>
		<polygon class="st5" points="25,22.5 25,25.1 23.6,24.5 23.6,21.9 35,15.8 36.5,16.5 		"/>
	</g>
	<g>
		<polygon class="st7" points="34.7,8.5 23.2,2.6 23.1,12.7 34.6,18.5 		"/>
		<polygon class="st0" points="25.9,22.8 26,12.7 34.6,8.5 34.6,18.5 		"/>
		<polygon class="st8" points="14.4,16.9 14.5,6.8 23.2,2.6 23.1,12.6 		"/>
		<polygon class="st1" points="26,12.7 14.5,6.8 14.4,16.9 25.9,22.8 		"/>
		<polygon class="st3" points="15.4,9.6 15.7,11.2 18.2,12 17.9,10.5 		"/>
		<polygon class="st4" points="22.5,12.5 22.5,13.3 24.8,14.5 24.8,13.7 		"/>
		<polygon class="st4" points="24.2,20 24.2,20.9 24.8,21.3 24.8,20.3 		"/>
		<polygon class="st4" points="23.4,19.6 23.4,20.5 24,20.9 24,19.9 		"/>
		<polygon class="st4" points="22.5,13.5 22.5,13.9 24.8,15.1 24.8,14.8 		"/>
		<polygon class="st4" points="22.5,14.1 22.5,14.5 24.8,15.7 24.8,15.4 		"/>
		<polygon class="st9" points="26,12.7 28.2,17.1 34.6,13.5 34.4,9 		"/>
		<polygon class="st9" points="26,12.7 24.2,18.1 14.4,13 14.6,7.4 		"/>
		<polygon class="st10" points="26,12.7 24.1,17.6 12.2,11.7 14.5,6.8 		"/>
		<polygon class="st10" points="26,12.7 28.4,16.6 37,12.2 34.6,8.5 		"/>
		<polygon class="st11" points="14.5,6.8 12.5,9 13.9,8.1 		"/>
		<polygon class="st11" points="34.6,8.5 35.2,9.4 37,10 		"/>
	</g>
</g>
</svg>
