<?xml version="1.0" encoding="utf-8"?>
<!-- Generator: Adobe Illustrator 24.0.1, SVG Export Plug-In . SVG Version: 6.00 Build 0)  -->
<svg version="1.1" id="Calque_1" xmlns="http://www.w3.org/2000/svg" xmlns:xlink="http://www.w3.org/1999/xlink" x="0px" y="0px"
	 viewBox="0 0 43.6 37.5" style="enable-background:new 0 0 43.6 37.5;" xml:space="preserve">
<style type="text/css">
	.st0{fill:#0CBAC7;}
	.st1{fill:#0A97A1;}
	.st2{fill:#0ED2E1;}
	.st3{fill:#801C2D;}
	.st4{fill:#FC6D33;}
	.st5{fill:#FF9D46;}
	.st6{fill:#D63660;}
	.st7{fill:#CC2D47;}
	.st8{fill:#FE395B;}
</style>
<g>
	<g>
		<path class="st0" d="M43.5,32.4c0,0,0,0.7-0.6,0.7l0-0.7H43.5z"/>
		<path class="st0" d="M12.6,1.8c0,0-0.7,0-0.7,0.7h0.9L12.6,1.8z"/>
		<path class="st1" d="M43.5,27.8c0,0-1.1-0.4-2-1.1c-1.2-0.9-2-2.3-0.1-3.8c0,0-1.9,0.5-1.3,2.4c0.6,1.8,2.7,2.5,3.1,2.5L43.5,27.8
			z"/>
		<path class="st0" d="M43.5,23v-5.6c0-0.1-0.1-0.2-0.2-0.3L12.8,1.8c-0.2-0.1-0.4,0-0.4,0.3v6.4L13,8.7c0.3,0.1,0.8,0.3,1.1,0.6
			c1.3,1,1.8,2.6,1.1,3.5c-0.6,0.8-1.6,0.9-2.8,0.3V17c0,0.1,0.1,0.2,0.2,0.3l30.6,15.4c0.2,0.1,0.4,0,0.4-0.3l0-4.6
			c-0.4-0.1-1-0.1-1.3-0.3c-1.7-0.7-2.6-2.3-2.1-3.5C40.5,23,42,22.6,43.5,23z"/>
		<path class="st2" d="M43,17.5L12.4,2.2c-0.2-0.1-0.4,0-0.4,0.3v6l0.7,0.2C13,8.8,13.4,9,13.8,9.2c1.3,1,1.8,2.6,1.1,3.5
			c-0.6,0.8-1.7,0.9-2.9,0.4v4.3c0,0.1,0.1,0.2,0.2,0.3L42.7,33c0.2,0.1,0.4,0,0.4-0.3v-4.9c-0.3-0.1-0.7-0.2-1-0.3
			c-1.7-0.7-2.6-2.3-2.1-3.5c0.4-0.9,1.7-1.4,3.1-1.1v-5.1C43.1,17.7,43.1,17.6,43,17.5z"/>
		<g>
			<polygon class="st0" points="25.1,14.7 20.6,12.3 24.6,17.4 23.4,21.6 27,20.4 31,25.4 29.3,19.7 32.8,18.5 28.1,16.3 26.5,10.5 
							"/>
			<polygon class="st3" points="21.5,12.8 25.1,17.4 24,21 27.3,19.9 30.8,24.6 31.1,25.4 27.1,20.5 23.4,21.6 24.6,17.3 20.6,12.3 
							"/>
		</g>
		<path class="st3" d="M12,13.2l0.4,0c0,0,1.4,0.6,2.6-0.5c0,0-0.4,1-1.9,0.9C13.1,13.5,12.3,13.4,12,13.2z"/>
		<polygon class="st0" points="37.4,16 37.4,29.5 38.5,30 38.5,16.5 		"/>
		<polygon class="st0" points="17,5.8 17,19.3 18,19.8 18,6.3 		"/>
	</g>
	<g>
		<path class="st4" d="M33.8,32.4c0,0,0,0.7-0.6,0.7l0-0.7H33.8z"/>
		<path class="st4" d="M2.9,1.8c0,0-0.7,0-0.7,0.7h0.9L2.9,1.8z"/>
		<path class="st4" d="M33.8,27.8c0,0-1.1-0.4-2-1.1c-1.2-0.9-2-2.3-0.1-3.8c0,0-1.9,0.5-1.3,2.4c0.6,1.8,2.7,2.5,3.1,2.5L33.8,27.8
			z"/>
		<path class="st4" d="M33.8,23v-5.6c0-0.1-0.1-0.2-0.2-0.3L3.1,1.8c-0.2-0.1-0.4,0-0.4,0.3v6.4l0.7,0.2C3.7,8.8,4.1,9,4.4,9.2
			c1.3,1,1.8,2.6,1.1,3.5c-0.6,0.8-1.6,0.9-2.8,0.3V17c0,0.1,0.1,0.2,0.2,0.3l30.6,15.4c0.2,0.1,0.4,0,0.4-0.3l0-4.6
			c-0.4-0.1-1-0.1-1.3-0.3c-1.7-0.7-2.6-2.3-2.1-3.5C30.8,23,32.3,22.6,33.8,23z"/>
		<path class="st5" d="M33.3,17.5L2.7,2.2c-0.2-0.1-0.4,0-0.4,0.3v6L3,8.7C3.3,8.8,3.7,9,4,9.2c1.3,1,1.8,2.6,1.1,3.5
			c-0.6,0.8-1.7,0.9-2.9,0.4v4.3c0,0.1,0.1,0.2,0.2,0.3L33,33c0.2,0.1,0.4,0,0.4-0.3v-4.9c-0.3-0.1-0.7-0.2-1-0.3
			c-1.7-0.7-2.6-2.3-2.1-3.5c0.4-0.9,1.7-1.4,3.1-1.1v-5.1C33.4,17.7,33.3,17.6,33.3,17.5z"/>
		<g>
			<polygon class="st4" points="15.4,14.7 10.9,12.3 14.9,17.4 13.7,21.6 17.3,20.4 21.3,25.4 19.6,19.7 23.1,18.5 18.4,16.3 
				16.8,10.5 			"/>
			<polygon class="st3" points="11.8,12.8 15.4,17.4 14.3,21 17.6,19.9 21.1,24.6 21.4,25.4 17.3,20.5 13.7,21.6 14.9,17.3 
				10.8,12.3 			"/>
		</g>
		<path class="st3" d="M2.3,13.2l0.4,0c0,0,1.4,0.6,2.6-0.5c0,0-0.4,1-1.9,0.9C3.4,13.5,2.6,13.4,2.3,13.2z"/>
		<polygon class="st4" points="27.7,16 27.7,29.5 28.8,30 28.8,16.5 		"/>
		<polygon class="st4" points="7.3,5.8 7.3,19.3 8.3,19.8 8.3,6.3 		"/>
	</g>
	<g>
		<path class="st6" d="M31.5,36.8c0,0,0,0.7-0.6,0.7l0-0.7H31.5z"/>
		<path class="st7" d="M0.7,6.2c0,0-0.7,0-0.7,0.7h0.9L0.7,6.2z"/>
		<path class="st3" d="M31.5,32.3c0,0-1.1-0.4-2-1.1c-1.2-0.9-2-2.3-0.1-3.8c0,0-1.9,0.5-1.3,2.4c0.6,1.8,2.7,2.5,3.1,2.5L31.5,32.3
			z"/>
		<path class="st7" d="M31.5,27.4v-5.6c0-0.1-0.1-0.2-0.2-0.3L0.8,6.3c-0.2-0.1-0.4,0-0.4,0.3v6.4L1,13.1c0.3,0.1,0.8,0.3,1.1,0.6
			c1.3,1,1.8,2.6,1.1,3.5c-0.6,0.8-1.6,0.9-2.8,0.3v3.9c0,0.1,0.1,0.2,0.2,0.3l30.6,15.4c0.2,0.1,0.4,0,0.4-0.3l0-4.6
			c-0.4-0.1-1-0.1-1.3-0.3c-1.7-0.7-2.6-2.3-2.1-3.5C28.5,27.4,30,27,31.5,27.4z"/>
		<path class="st8" d="M31,22L0.4,6.7C0.2,6.6,0,6.7,0,6.9v6l0.7,0.2c0.3,0.1,0.8,0.3,1.1,0.6c1.3,1,1.8,2.6,1.1,3.5
			C2.3,18,1.2,18.1,0,17.6v4.3c0,0.1,0.1,0.2,0.2,0.3l30.6,15.4c0.2,0.1,0.4,0,0.4-0.3v-4.9c-0.3-0.1-0.7-0.2-1-0.3
			c-1.7-0.7-2.6-2.3-2.1-3.5c0.4-0.9,1.7-1.4,3.1-1.1v-5.1C31.1,22.1,31.1,22,31,22z"/>
		<g>
			<polygon class="st7" points="13.2,19.2 8.6,16.8 12.6,21.8 11.4,26 15.1,24.9 19.1,29.8 17.3,24.1 20.9,23 16.2,20.7 14.5,14.9 
							"/>
			<polygon class="st3" points="9.5,17.3 13.1,21.8 12,25.4 15.3,24.3 18.8,29 19.1,29.8 15.1,24.9 11.4,26 12.6,21.8 8.6,16.8 			
				"/>
		</g>
		<path class="st3" d="M0,17.6l0.4,0c0,0,1.4,0.6,2.6-0.5c0,0-0.4,1-1.9,0.9C1.1,17.9,0.3,17.8,0,17.6z"/>
		<polygon class="st7" points="25.5,20.4 25.5,33.9 26.5,34.4 26.5,20.9 		"/>
		<polygon class="st7" points="5,10.2 5,23.7 6.1,24.2 6.1,10.8 		"/>
	</g>
</g>
</svg>
