<?xml version="1.0" encoding="utf-8"?>
<!-- Generator: Adobe Illustrator 23.1.1, SVG Export Plug-In . SVG Version: 6.00 Build 0)  -->
<svg version="1.1" id="Calque_1" xmlns="http://www.w3.org/2000/svg" xmlns:xlink="http://www.w3.org/1999/xlink" x="0px" y="0px"
	 viewBox="0 0 43.6 37.5" style="enable-background:new 0 0 43.6 37.5;" xml:space="preserve">
<style type="text/css">
	.st0{fill:#180D38;}
	.st1{fill:#EC4F00;}
	.st2{fill:#F0792B;}
	.st3{fill:#F06D23;}
	.st4{fill:#ED6418;}
	.st5{fill:#EF5702;}
	.st6{fill:#634EF1;}
	.st7{fill:#26146B;}
	.st8{fill:#331488;}
	.st9{fill:#F88831;}
	.st10{fill:#281652;}
	.st11{fill:#F41B49;}
	.st12{fill:#2EC9D9;}
	.st13{fill:#FFFFFF;}
	.st14{fill:none;}
	.st15{font-family:'ArialMT';}
	.st16{font-size:12px;}
	.st17{fill:#219AC7;}
	.st18{fill:#175E49;}
	.st19{fill:#EB0F48;}
	.st20{fill:#CA0031;}
	.st21{fill:#22823D;}
</style>
<g>
	<polygon class="st0" points="16.8,9.8 19.3,21.2 18.8,21.7 16.2,10.4 	"/>
	<g>
		<polygon class="st1" points="29.1,18.4 21.8,22.1 21.8,22.3 29.2,18.6 		"/>
		<polygon class="st2" points="30,18.2 21.8,22.3 21.8,23.5 30,19.4 		"/>
		<polygon class="st3" points="41.4,24.1 30,18.2 30,19.5 41.7,25.3 		"/>
		<polygon class="st3" points="30,14.9 42.3,21 42.3,23.1 30,16.8 		"/>
		<polygon class="st2" points="20.8,19.2 30,14.7 30,16.8 21.5,21 20.8,20.9 		"/>
		<polygon class="st4" points="42.3,25.5 33.1,30.1 20.8,24 30,19.4 		"/>
		<polygon class="st1" points="21.3,19.2 30.3,14.8 30,14.7 21.1,19.1 		"/>
		<polygon class="st1" points="30,14.7 42.3,21 42,21.1 29.8,14.8 		"/>
		<polygon class="st3" points="30.9,17.3 30.9,18.8 30,18.4 30,16.8 		"/>
		<polygon class="st2" points="29.2,17.2 29.2,19.1 30,18.7 30,16.8 		"/>
		<polygon class="st1" points="31,18.5 41.4,23.8 41.4,24.1 30.8,18.6 		"/>
		<polygon class="st5" points="31.1,17.3 30.8,17.2 30.8,18.6 31.1,18.6 		"/>
		<polygon class="st5" points="29,17.3 29.3,17.2 29.2,18.6 29,18.6 		"/>
		<g>
			<circle class="st6" cx="28.2" cy="21" r="0.6"/>
			<circle class="st6" cx="29.5" cy="19.4" r="0.6"/>
			<circle class="st6" cx="29.7" cy="18.4" r="0.6"/>
			<circle class="st6" cx="30.9" cy="18.2" r="0.6"/>
			<circle class="st6" cx="31.6" cy="18.9" r="0.6"/>
			<circle class="st6" cx="29.8" cy="20.7" r="0.6"/>
			<circle class="st6" cx="31" cy="20.5" r="0.6"/>
			<circle class="st6" cx="28.9" cy="21.2" r="0.6"/>
			<circle class="st7" cx="29.8" cy="22.6" r="0.6"/>
			<circle class="st7" cx="28.9" cy="20.3" r="0.6"/>
			<circle class="st7" cx="30.9" cy="21.7" r="0.6"/>
			<circle class="st8" cx="30.2" cy="21.7" r="0.6"/>
			<circle class="st8" cx="31.6" cy="20.3" r="0.6"/>
			<circle class="st8" cx="29.4" cy="21.5" r="0.6"/>
			<circle class="st8" cx="30" cy="20.4" r="0.6"/>
			<circle class="st8" cx="29.4" cy="20.3" r="0.6"/>
			<circle class="st8" cx="30" cy="19.5" r="0.6"/>
			<circle class="st8" cx="30.4" cy="18.9" r="0.6"/>
			<circle class="st8" cx="28.8" cy="19" r="0.6"/>
			<circle class="st8" cx="30.6" cy="19.4" r="0.6"/>
		</g>
		<g>
			<circle class="st6" cx="24.1" cy="23.6" r="0.6"/>
			<circle class="st6" cx="25.3" cy="22" r="0.6"/>
			<circle class="st6" cx="25.5" cy="20.9" r="0.6"/>
			<circle class="st6" cx="26.8" cy="20.7" r="0.6"/>
			<circle class="st6" cx="27.5" cy="21.5" r="0.6"/>
			<circle class="st6" cx="25.7" cy="23.2" r="0.6"/>
			<circle class="st6" cx="26.9" cy="23" r="0.6"/>
			<circle class="st6" cx="24.8" cy="23.8" r="0.6"/>
			<circle class="st7" cx="25.7" cy="25.1" r="0.6"/>
			<circle class="st7" cx="24.8" cy="22.8" r="0.6"/>
			<circle class="st7" cx="26.8" cy="24.3" r="0.6"/>
			<circle class="st8" cx="26.1" cy="24.3" r="0.6"/>
			<circle class="st8" cx="27.4" cy="22.8" r="0.6"/>
			<circle class="st8" cx="25.2" cy="24.1" r="0.6"/>
			<circle class="st8" cx="25.9" cy="23" r="0.6"/>
			<circle class="st8" cx="25.2" cy="22.8" r="0.6"/>
			<circle class="st8" cx="25.9" cy="22.1" r="0.6"/>
			<circle class="st8" cx="26.3" cy="21.5" r="0.6"/>
			<circle class="st8" cx="24.7" cy="21.6" r="0.6"/>
			<circle class="st8" cx="26.5" cy="22" r="0.6"/>
		</g>
		<g>
			<circle class="st6" cx="25.5" cy="24.7" r="0.6"/>
			<circle class="st6" cx="26.8" cy="23.1" r="0.6"/>
			<circle class="st6" cx="27" cy="22" r="0.6"/>
			<circle class="st6" cx="28.3" cy="21.8" r="0.6"/>
			<circle class="st6" cx="28.9" cy="22.6" r="0.6"/>
			<circle class="st6" cx="27.2" cy="24.3" r="0.6"/>
			<circle class="st6" cx="28.3" cy="24.1" r="0.6"/>
			<circle class="st6" cx="26.2" cy="24.9" r="0.6"/>
			<circle class="st7" cx="27.2" cy="26.2" r="0.6"/>
			<circle class="st7" cx="26.2" cy="23.9" r="0.6"/>
			<circle class="st7" cx="28.2" cy="25.4" r="0.6"/>
			<circle class="st8" cx="27.5" cy="25.4" r="0.6"/>
			<circle class="st8" cx="28.9" cy="23.9" r="0.6"/>
			<circle class="st8" cx="26.7" cy="25.2" r="0.6"/>
			<circle class="st8" cx="27.3" cy="24.1" r="0.6"/>
			<circle class="st8" cx="26.7" cy="23.9" r="0.6"/>
			<circle class="st8" cx="27.3" cy="23.2" r="0.6"/>
			<circle class="st8" cx="27.7" cy="22.6" r="0.6"/>
			<circle class="st8" cx="26.1" cy="22.7" r="0.6"/>
			<circle class="st8" cx="27.9" cy="23.1" r="0.6"/>
		</g>
		<g>
			<circle class="st6" cx="37.3" cy="25.6" r="0.6"/>
			<circle class="st6" cx="36.9" cy="23.5" r="0.6"/>
			<circle class="st6" cx="36.2" cy="22.7" r="0.6"/>
			<circle class="st6" cx="36.8" cy="21.6" r="0.6"/>
			<circle class="st6" cx="37.8" cy="21.6" r="0.6"/>
			<circle class="st6" cx="38.1" cy="24.1" r="0.6"/>
			<circle class="st6" cx="38.7" cy="23" r="0.6"/>
			<circle class="st6" cx="37.9" cy="25.1" r="0.6"/>
			<circle class="st7" cx="39.5" cy="25.3" r="0.6"/>
			<circle class="st7" cx="37.1" cy="24.5" r="0.6"/>
			<circle class="st7" cx="39.5" cy="23.9" r="0.6"/>
			<circle class="st8" cx="39.1" cy="24.4" r="0.6"/>
			<circle class="st8" cx="38.8" cy="22.5" r="0.6"/>
			<circle class="st8" cx="38.4" cy="25" r="0.6"/>
			<circle class="st8" cx="38" cy="23.8" r="0.6"/>
			<circle class="st8" cx="37.4" cy="24.2" r="0.6"/>
			<circle class="st8" cx="37.3" cy="23.2" r="0.6"/>
			<circle class="st8" cx="37.1" cy="22.5" r="0.6"/>
			<circle class="st8" cx="36.1" cy="23.8" r="0.6"/>
			<circle class="st8" cx="37.6" cy="22.6" r="0.6"/>
		</g>
		<g>
			<circle class="st6" cx="35" cy="27.1" r="0.6"/>
			<circle class="st6" cx="34.5" cy="25.1" r="0.6"/>
			<circle class="st6" cx="33.8" cy="24.3" r="0.6"/>
			<circle class="st6" cx="34.5" cy="23.2" r="0.6"/>
			<circle class="st6" cx="35.5" cy="23.2" r="0.6"/>
			<circle class="st6" cx="35.7" cy="25.7" r="0.6"/>
			<circle class="st6" cx="36.3" cy="24.6" r="0.6"/>
			<circle class="st6" cx="35.6" cy="26.7" r="0.6"/>
			<circle class="st7" cx="37.2" cy="26.8" r="0.6"/>
			<circle class="st7" cx="34.8" cy="26.1" r="0.6"/>
			<circle class="st7" cx="37.2" cy="25.5" r="0.6"/>
			<circle class="st8" cx="36.7" cy="26" r="0.6"/>
			<circle class="st8" cx="36.5" cy="24" r="0.6"/>
			<circle class="st8" cx="36.1" cy="26.6" r="0.6"/>
			<circle class="st8" cx="35.6" cy="25.3" r="0.6"/>
			<circle class="st8" cx="35.1" cy="25.7" r="0.6"/>
			<circle class="st8" cx="34.9" cy="24.8" r="0.6"/>
			<circle class="st8" cx="34.7" cy="24.1" r="0.6"/>
			<circle class="st8" cx="33.8" cy="25.4" r="0.6"/>
			<circle class="st8" cx="35.2" cy="24.2" r="0.6"/>
		</g>
		<g>
			<circle class="st6" cx="32.3" cy="23.2" r="0.6"/>
			<circle class="st6" cx="31.6" cy="21.3" r="0.6"/>
			<circle class="st6" cx="30.8" cy="20.5" r="0.6"/>
			<circle class="st6" cx="31.4" cy="19.4" r="0.6"/>
			<circle class="st6" cx="32.4" cy="19.2" r="0.6"/>
			<circle class="st6" cx="32.9" cy="21.7" r="0.6"/>
			<circle class="st6" cx="33.4" cy="20.6" r="0.6"/>
			<circle class="st6" cx="32.8" cy="22.8" r="0.6"/>
			<circle class="st7" cx="34.4" cy="22.8" r="0.6"/>
			<circle class="st7" cx="32" cy="22.2" r="0.6"/>
			<circle class="st7" cx="34.3" cy="21.4" r="0.6"/>
			<circle class="st8" cx="33.9" cy="22" r="0.6"/>
			<circle class="st8" cx="33.5" cy="20" r="0.6"/>
			<circle class="st8" cx="33.3" cy="22.6" r="0.6"/>
			<circle class="st8" cx="32.8" cy="21.4" r="0.6"/>
			<circle class="st8" cx="32.2" cy="21.8" r="0.6"/>
			<circle class="st8" cx="32" cy="20.9" r="0.6"/>
			<circle class="st8" cx="31.7" cy="20.2" r="0.6"/>
			<circle class="st8" cx="30.9" cy="21.6" r="0.6"/>
			<circle class="st8" cx="32.3" cy="20.3" r="0.6"/>
		</g>
		<g>
			<circle class="st6" cx="29.4" cy="27" r="0.6"/>
			<circle class="st6" cx="28.8" cy="25.1" r="0.6"/>
			<circle class="st6" cx="28" cy="24.3" r="0.6"/>
			<circle class="st6" cx="28.6" cy="23.2" r="0.6"/>
			<circle class="st6" cx="29.5" cy="23" r="0.6"/>
			<circle class="st6" cx="30" cy="25.5" r="0.6"/>
			<circle class="st6" cx="30.5" cy="24.4" r="0.6"/>
			<circle class="st6" cx="29.9" cy="26.5" r="0.6"/>
			<circle class="st7" cx="31.6" cy="26.5" r="0.6"/>
			<circle class="st7" cx="29.1" cy="26" r="0.6"/>
			<circle class="st7" cx="31.4" cy="25.2" r="0.6"/>
			<circle class="st8" cx="31" cy="25.8" r="0.6"/>
			<circle class="st8" cx="30.6" cy="23.8" r="0.6"/>
			<circle class="st8" cx="30.4" cy="26.3" r="0.6"/>
			<circle class="st8" cx="29.9" cy="25.2" r="0.6"/>
			<circle class="st8" cx="29.4" cy="25.6" r="0.6"/>
			<circle class="st8" cx="29.1" cy="24.7" r="0.6"/>
			<circle class="st8" cx="28.9" cy="24" r="0.6"/>
			<circle class="st8" cx="28.1" cy="25.4" r="0.6"/>
			<circle class="st8" cx="29.4" cy="24.1" r="0.6"/>
		</g>
		<g>
			<circle class="st6" cx="32.5" cy="27" r="0.6"/>
			<circle class="st6" cx="31.9" cy="25.1" r="0.6"/>
			<circle class="st6" cx="31.1" cy="24.3" r="0.6"/>
			<circle class="st6" cx="31.7" cy="23.2" r="0.6"/>
			<circle class="st6" cx="32.7" cy="23" r="0.6"/>
			<circle class="st6" cx="33.1" cy="25.5" r="0.6"/>
			<circle class="st6" cx="33.6" cy="24.4" r="0.6"/>
			<circle class="st6" cx="33.1" cy="26.5" r="0.6"/>
			<circle class="st7" cx="34.7" cy="26.5" r="0.6"/>
			<circle class="st7" cx="32.3" cy="26" r="0.6"/>
			<circle class="st7" cx="34.6" cy="25.2" r="0.6"/>
			<circle class="st8" cx="34.2" cy="25.8" r="0.6"/>
			<circle class="st8" cx="33.7" cy="23.8" r="0.6"/>
			<circle class="st8" cx="33.6" cy="26.3" r="0.6"/>
			<circle class="st8" cx="33" cy="25.2" r="0.6"/>
			<circle class="st8" cx="32.5" cy="25.6" r="0.6"/>
			<circle class="st8" cx="32.3" cy="24.7" r="0.6"/>
			<circle class="st8" cx="32" cy="24" r="0.6"/>
			<circle class="st8" cx="31.2" cy="25.4" r="0.6"/>
			<circle class="st8" cx="32.5" cy="24.1" r="0.6"/>
		</g>
		<g>
			<circle class="st6" cx="35.9" cy="20.9" r="0.6"/>
			<circle class="st6" cx="35.7" cy="22.9" r="0.6"/>
			<circle class="st6" cx="36.1" cy="23.9" r="0.6"/>
			<circle class="st6" cx="35.1" cy="24.8" r="0.6"/>
			<circle class="st6" cx="34.2" cy="24.5" r="0.6"/>
			<circle class="st6" cx="34.7" cy="22" r="0.6"/>
			<circle class="st6" cx="33.8" cy="22.9" r="0.6"/>
			<circle class="st6" cx="35.2" cy="21.1" r="0.6"/>
			<circle class="st7" cx="33.7" cy="20.4" r="0.6"/>
			<circle class="st7" cx="35.7" cy="21.9" r="0.6"/>
			<circle class="st7" cx="33.3" cy="21.8" r="0.6"/>
			<circle class="st8" cx="33.9" cy="21.4" r="0.6"/>
			<circle class="st8" cx="33.5" cy="23.3" r="0.6"/>
			<circle class="st8" cx="34.7" cy="21.1" r="0.6"/>
			<circle class="st8" cx="34.7" cy="22.4" r="0.6"/>
			<circle class="st8" cx="35.4" cy="22.2" r="0.6"/>
			<circle class="st8" cx="35.2" cy="23.1" r="0.6"/>
			<circle class="st8" cx="35.2" cy="23.8" r="0.6"/>
			<circle class="st8" cx="36.5" cy="22.9" r="0.6"/>
			<circle class="st8" cx="34.7" cy="23.6" r="0.6"/>
		</g>
		<g>
			<circle class="st6" cx="30.5" cy="24.6" r="0.6"/>
			<circle class="st6" cx="28.8" cy="23.4" r="0.6"/>
			<circle class="st6" cx="27.8" cy="23.3" r="0.6"/>
			<circle class="st6" cx="27.5" cy="22" r="0.6"/>
			<circle class="st6" cx="28.3" cy="21.3" r="0.6"/>
			<circle class="st6" cx="30.1" cy="23" r="0.6"/>
			<circle class="st6" cx="29.8" cy="21.8" r="0.6"/>
			<circle class="st6" cx="30.7" cy="23.9" r="0.6"/>
			<circle class="st7" cx="32" cy="22.9" r="0.6"/>
			<circle class="st7" cx="29.7" cy="23.9" r="0.6"/>
			<circle class="st7" cx="31.1" cy="21.9" r="0.6"/>
			<circle class="st8" cx="31.1" cy="22.6" r="0.6"/>
			<circle class="st8" cx="29.6" cy="21.3" r="0.6"/>
			<circle class="st8" cx="31" cy="23.4" r="0.6"/>
			<circle class="st8" cx="29.8" cy="22.8" r="0.6"/>
			<circle class="st8" cx="29.7" cy="23.5" r="0.6"/>
			<circle class="st8" cx="28.9" cy="22.8" r="0.6"/>
			<circle class="st8" cx="28.3" cy="22.5" r="0.6"/>
			<circle class="st8" cx="28.5" cy="24.1" r="0.6"/>
			<circle class="st8" cx="28.8" cy="22.2" r="0.6"/>
		</g>
		<g>
			<circle class="st6" cx="33.7" cy="29.1" r="0.6"/>
			<circle class="st6" cx="32" cy="27.9" r="0.6"/>
			<circle class="st6" cx="31" cy="27.8" r="0.6"/>
			<circle class="st6" cx="30.7" cy="26.5" r="0.6"/>
			<circle class="st6" cx="31.4" cy="25.8" r="0.6"/>
			<circle class="st6" cx="33.3" cy="27.5" r="0.6"/>
			<circle class="st6" cx="33" cy="26.3" r="0.6"/>
			<circle class="st6" cx="33.8" cy="28.4" r="0.6"/>
			<circle class="st7" cx="35.2" cy="27.4" r="0.6"/>
			<circle class="st7" cx="32.9" cy="28.4" r="0.6"/>
			<circle class="st7" cx="34.2" cy="26.4" r="0.6"/>
			<circle class="st8" cx="34.3" cy="27.1" r="0.6"/>
			<circle class="st8" cx="32.8" cy="25.8" r="0.6"/>
			<circle class="st8" cx="34.1" cy="27.9" r="0.6"/>
			<circle class="st8" cx="33" cy="27.3" r="0.6"/>
			<circle class="st8" cx="32.9" cy="28" r="0.6"/>
			<circle class="st8" cx="32.1" cy="27.4" r="0.6"/>
			<circle class="st8" cx="31.5" cy="27" r="0.6"/>
			<circle class="st8" cx="31.7" cy="28.6" r="0.6"/>
			<circle class="st8" cx="32" cy="26.8" r="0.6"/>
		</g>
		<g>
			<circle class="st6" cx="28.8" cy="22.6" r="0.6"/>
			<circle class="st6" cx="27.1" cy="21.4" r="0.6"/>
			<circle class="st6" cx="26" cy="21.3" r="0.6"/>
			<circle class="st6" cx="25.8" cy="20" r="0.6"/>
			<circle class="st6" cx="26.5" cy="19.4" r="0.6"/>
			<circle class="st6" cx="28.3" cy="21" r="0.6"/>
			<circle class="st6" cx="28.1" cy="19.9" r="0.6"/>
			<circle class="st6" cx="28.9" cy="21.9" r="0.6"/>
			<circle class="st7" cx="30.2" cy="20.9" r="0.6"/>
			<circle class="st7" cx="27.9" cy="22" r="0.6"/>
			<circle class="st7" cx="29.3" cy="19.9" r="0.6"/>
			<circle class="st8" cx="29.3" cy="20.6" r="0.6"/>
			<circle class="st8" cx="27.8" cy="19.3" r="0.6"/>
			<circle class="st8" cx="29.2" cy="21.5" r="0.6"/>
			<circle class="st8" cx="28.1" cy="20.9" r="0.6"/>
			<circle class="st8" cx="27.9" cy="21.5" r="0.6"/>
			<circle class="st8" cx="27.1" cy="20.9" r="0.6"/>
			<circle class="st8" cx="26.6" cy="20.5" r="0.6"/>
			<circle class="st8" cx="26.7" cy="22.1" r="0.6"/>
			<circle class="st8" cx="27" cy="20.3" r="0.6"/>
		</g>
		<g>
			<g>
				<g>
					<polygon class="st5" points="33.1,30.1 33.3,30 33.3,28.3 33.1,28.5 					"/>
					<polygon class="st9" points="33.1,30.1 33.1,28.5 20.8,22.1 20.8,24 					"/>
					<polygon class="st1" points="33.3,28.3 21.1,22 20.9,22.2 33.1,28.5 					"/>
				</g>
				<g>
					<polygon class="st5" points="41.7,24.4 41.4,24.3 41.5,22.9 41.7,22.8 					"/>
					<polygon class="st5" points="21.5,22.5 21.8,22.4 21.8,21.4 21.5,21.2 					"/>
					<polygon class="st1" points="33.3,25.3 21.1,19.1 20.8,19.2 33.1,25.4 					"/>
					<polygon class="st9" points="33.1,27.1 33.1,25.4 20.8,19.2 20.8,20.9 					"/>
				</g>
				<polygon class="st9" points="32.4,26.4 32.4,28.3 33.1,28.7 33.1,26.7 				"/>
				<polygon class="st2" points="33.7,26.4 33.7,28.3 33,28.7 33,26.7 				"/>
				<polygon class="st1" points="32.8,25.3 42,20.9 42.3,21 33.1,25.4 				"/>
				<polygon class="st1" points="41.4,24.2 33.7,27.9 33.7,28.1 41.7,24.4 				"/>
				<polygon class="st2" points="33.1,30.1 42.3,25.5 42.3,21 33.1,25.4 33.1,26.9 41.7,23 41.7,24.4 33,28.5 				"/>
			</g>
			<polygon class="st9" points="20.8,20.2 20.8,22.2 21.5,22.5 21.5,20.5 			"/>
		</g>
	</g>
	<g>
		<polygon class="st10" points="1.3,26.3 13.4,32.3 13.4,29 1.3,23 		"/>
		<polygon class="st0" points="13.4,29 22.5,24.6 22.5,27.8 13.4,32.3 		"/>
		<polygon class="st8" points="22.5,24.6 10.4,18.5 1.3,23 13.4,29 		"/>
		<g>
			<polygon class="st10" points="8.7,24.1 8.7,14.7 12,16.4 12,25.9 			"/>
			<polygon class="st0" points="12,25.9 12.8,25.4 12.8,15.8 12,16.4 			"/>
		</g>
		<polygon class="st8" points="0.9,2.6 16.2,10.4 18.8,21.7 3.4,14.1 		"/>
		<polygon class="st10" points="0.9,2.6 1.5,2.1 16.8,9.8 16.2,10.4 		"/>
		<path class="st0" d="M1.6,25c3.4,1.7,6.8,3.4,10.2,5.1c0.5,0.2,1,0.5,1.4,0.7c0.1,0.1,0.2-0.2,0.1-0.2c-3.4-1.7-6.8-3.4-10.2-5.1
			c-0.5-0.2-1-0.5-1.4-0.7C1.6,24.7,1.5,25,1.6,25L1.6,25z"/>
	</g>
	<g>
		<g>
			<g>
				<path class="st11" d="M24.4,28.6L24.4,28.6L24.4,28.6z"/>
				<path class="st12" d="M22.3,29.7c-1.1,0-2-0.4-2.1-1v4.6v0.1c0,0.6,0.9,1.1,2.1,1.1s2.1-0.5,2.1-1.1l0,0l0,0v-4.8
					C24.4,29.2,23.5,29.7,22.3,29.7z"/>
			</g>
			<g>
				<path class="st13" d="M24.4,28.8L24.4,28.8L24.4,28.8z"/>
				<path class="st13" d="M22.3,33.2c-1.1,0-2-0.4-2.1-1v0.5v0.1c0,0.6,0.9,1.1,2.1,1.1s2.1-0.5,2.1-1.1l0,0l0,0v-0.6
					C24.4,32.7,23.5,33.2,22.3,33.2z"/>
				<path id="SVGID_x5F_2_x5F__1_" class="st14" d="M24.4,31.7v0.7l0,0l0,0c0,0.6-0.9,1.1-2.1,1.1s-2.1-0.5-2.1-1.1c0,0,0-0.1,0,0.1
					V32c0.1,0.4,1,0.9,2.1,0.9C23.5,32.8,24.4,32.3,24.4,31.7z"/>
				<text class="st15 st16"> </text>
			</g>
			<g>
				<path class="st13" d="M24.4,24.9L24.4,24.9L24.4,24.9z"/>
				<path class="st13" d="M22.3,30.2c-1.1,0-2-0.4-2.1-1v0.5v0.1c0,0.6,0.9,1.1,2.1,1.1s2.1-0.5,2.1-1.1l0,0l0,0v-0.6
					C24.4,29.7,23.5,30.2,22.3,30.2z"/>
			</g>
			<ellipse class="st17" cx="22.3" cy="28.6" rx="2.1" ry="1.1"/>
		</g>
		<g>
			<path class="st18" d="M22.4,31.5c-0.1-0.1-0.1-0.2-0.1-0.2c0-0.1,0-0.2,0-0.2c0-0.1,0.2-0.1,0.2,0c0,0,0,0.1,0,0.2
				c0-0.1,0-0.1,0.1-0.2s0.1-0.1,0.2-0.1s0.1,0.1,0.1,0.1c0,0.1,0,0.1-0.1,0.2l0.1-0.1l0.1-0.1c0.1,0,0.1,0.1,0.1,0.1
				c0,0.1-0.1,0.1-0.1,0.1h0.1c0.1,0,0.1,0,0.2,0.1l0.1,0.1c0,0.1-0.1,0.1-0.2,0.1s-0.1-0.1-0.2-0.1c0.1,0,0.1,0.1,0.1,0.2
				s0,0.1-0.1,0.2l0,0h-0.1c-0.1,0-0.1-0.1-0.2-0.1l-0.1-0.1C22.6,31.7,22.4,31.6,22.4,31.5c0.1,0.1,0,0.2-0.1,0.2s-0.1-0.1-0.2-0.2
				c0-0.2,0-0.3,0.1-0.4c0,0,0.1-0.1,0.1,0v0.1c0-0.1,0.1-0.2,0.1-0.2c0.1-0.1,0.2-0.1,0.3,0c0.1,0.1,0,0.2,0,0.3
				c0.1,0,0.2-0.1,0.3,0c0.1,0.1,0.1,0.2,0,0.2c0,0.2-0.2,0.3-0.4,0.3c0.1,0.1,0.1,0.2,0,0.3s-0.2,0-0.2-0.1
				c-0.1,0.1-0.2,0.3-0.3,0.4l0,0c0,0,0,0-0.1,0c0,0-0.1,0-0.1-0.1l0,0l0,0c0.1-0.1,0.2-0.3,0.2-0.5"/>
		</g>
	</g>
	<g>
		<g>
			<path class="st11" d="M30.2,29.1L30.2,29.1L30.2,29.1z"/>
			<path class="st11" d="M28.1,30.1c-1.1,0-2-0.4-2.1-1v4.6v0.1c0,0.6,0.9,1.1,2.1,1.1s2.1-0.5,2.1-1.1l0,0l0,0V29
				C30.2,29.7,29.3,30.1,28.1,30.1z"/>
		</g>
		<g>
			<path class="st13" d="M30.2,29.3L30.2,29.3L30.2,29.3z"/>
			<path class="st13" d="M28.1,33.7c-1.1,0-2-0.4-2.1-1v0.5v0.1c0,0.6,0.9,1.1,2.1,1.1s2.1-0.5,2.1-1.1l0,0l0,0v-0.6
				C30.2,33.2,29.3,33.7,28.1,33.7z"/>
			<path id="SVGID_x5F_3_x5F__1_" class="st14" d="M30.2,32.2v0.7l0,0l0,0c0,0.6-0.9,1.1-2.1,1.1S26,33.5,26,32.9c0,0,0-0.1,0,0.1
				v-0.5c0.1,0.4,1,0.9,2.1,0.9C29.3,33.3,30.2,32.8,30.2,32.2z"/>
			<text class="st15 st16"> </text>
		</g>
		<g>
			<path class="st13" d="M30.2,25.4L30.2,25.4L30.2,25.4z"/>
			<path class="st13" d="M28.1,30.6c-1.1,0-2-0.4-2.1-1v0.5v0.1c0,0.6,0.9,1.1,2.1,1.1s2.1-0.5,2.1-1.1l0,0l0,0v-0.6
				C30.2,30.1,29.3,30.6,28.1,30.6z"/>
		</g>
		<ellipse class="st19" cx="28.1" cy="29.1" rx="2.1" ry="1.1"/>
		<g>
			<path class="st20" d="M28.1,32.1C28,32,28,32,27.9,31.9c-0.1,0-0.2,0-0.2,0V32c0,0.1,0,0.2,0,0.4s0.1,0.2,0.2,0.3
				s0.2,0.1,0.4,0.1c0.1,0,0.1,0,0.2,0c0.1-0.1,0.2-0.2,0.2-0.3s0-0.2,0-0.3S28.6,32,28.6,32c-0.1,0-0.2-0.1-0.2,0
				C28.2,32,28.2,32,28.1,32.1L28.1,32.1"/>
		</g>
		<path class="st21" d="M28.2,32c0-0.1,0-0.1,0-0.2v-0.1c0-0.1-0.2-0.1-0.1,0c0,0.1,0,0.1,0,0.2V32C28.1,32.1,28.2,32.1,28.2,32
			L28.2,32z"/>
	</g>
</g>
</svg>
