<svg xmlns="http://www.w3.org/2000/svg" width="41.064" height="41.064" viewBox="0 0 41.064 41.064"><defs><style>.a{fill:#ffd40e;}</style></defs><circle class="a" cx="8.311" cy="8.311" r="8.311" transform="translate(9.325 24.543) rotate(-64.581)"/><path class="a" d="M1076.675,136.966h-8.66a.828.828,0,0,0,0,1.657h8.66a.828.828,0,0,0,0-1.657Z" transform="translate(-1036.439 -117.574)"/><path class="a" d="M963.317,138.11a.829.829,0,0,0-.828-.828h-8.66a.828.828,0,1,0,0,1.657h8.66A.829.829,0,0,0,963.317,138.11Z" transform="translate(-953 -117.805)"/><path class="a" d="M1026.845,75.267a.829.829,0,0,0,.828-.828v-8.66a.828.828,0,1,0-1.657,0v8.66A.829.829,0,0,0,1026.845,75.267Z" transform="translate(-1006.355 -64.95)"/><path class="a" d="M1027.159,179.136a.829.829,0,0,0-.828.829v8.66a.828.828,0,0,0,1.657,0v-8.66A.829.829,0,0,0,1027.159,179.136Z" transform="translate(-1006.585 -148.389)"/><path class="a" d="M1056.406,166.569a.848.848,0,0,0-1.171,0,.828.828,0,0,0,0,1.172l6.123,6.124h0a.828.828,0,1,0,1.171-1.171Z" transform="translate(-1027.528 -139.034)"/><path class="a" d="M980.395,93.346h0a.828.828,0,1,0,1.172-1.172l-6.123-6.124a.848.848,0,0,0-1.172,0,.829.829,0,0,0,0,1.172Z" transform="translate(-968.367 -80.197)"/><path class="a" d="M1054.891,94.073a.823.823,0,0,0,.586-.243l6.124-6.124h0a.831.831,0,0,0,0-1.172.848.848,0,0,0-1.172,0l-6.124,6.124a.829.829,0,0,0,.586,1.414Z" transform="translate(-1026.849 -80.551)"/><path class="a" d="M979.911,167.5l-6.124,6.124a.829.829,0,0,0,1.172,1.172l6.124-6.124a.828.828,0,0,0,0-1.171A.848.848,0,0,0,979.911,167.5Z" transform="translate(-968.013 -139.714)"/></svg>