<svg xmlns="http://www.w3.org/2000/svg" width="45.962" height="23.655" viewBox="0 0 45.962 23.655"><defs><style>.a{fill:#ffd40e;}</style></defs><path class="a" d="M515.807,193.966h-9.693a.927.927,0,1,0,0,1.854h9.693a.927.927,0,0,0,0-1.854Z" transform="translate(-470.771 -172.261)"/><path class="a" d="M402.548,195.209a.928.928,0,0,0-.927-.927h-9.693a.927.927,0,1,0,0,1.854h9.693A.929.929,0,0,0,402.548,195.209Z" transform="translate(-391 -172.482)"/><path class="a" d="M464.943,133.5a.928.928,0,0,0,.927-.927v-9.693a.927.927,0,1,0-1.855,0v9.693A.928.928,0,0,0,464.943,133.5Z" transform="translate(-442.01 -121.95)"/><path class="a" d="M419.154,151.244h0a.927.927,0,0,0,1.311-1.311l-6.854-6.854a.949.949,0,0,0-1.312,0,.928.928,0,0,0,0,1.311Z" transform="translate(-405.691 -136.527)"/><path class="a" d="M492.989,152a.921.921,0,0,0,.656-.272l6.854-6.854h0a.929.929,0,0,0,0-1.311.949.949,0,0,0-1.311,0l-6.854,6.854a.927.927,0,0,0,.656,1.583Z" transform="translate(-461.603 -136.865)"/><path class="a" d="M454.4,175.267a9.3,9.3,0,1,0-18.4,0Z" transform="translate(-422.366 -151.743)"/></svg>