<svg xmlns="http://www.w3.org/2000/svg" xmlns:xlink="http://www.w3.org/1999/xlink" width="33.445" height="32.962" viewBox="0 0 33.445 32.962"><defs><style>.a{fill:#ffd40e;}.b{fill:#e2e2e2;}.c{fill:#efefef;}.d{filter:url(#a);}</style><filter id="a" x="0" y="0" width="31.628" height="32.962" filterUnits="userSpaceOnUse"><feOffset input="SourceAlpha"/><feGaussianBlur stdDeviation="1" result="b"/><feFlood flood-color="#fff2bd" flood-opacity="0.82"/><feComposite operator="in" in2="b"/><feComposite in="SourceGraphic"/></filter></defs><g transform="translate(3 3)"><g class="d" transform="matrix(1, 0, 0, 1, -3, -3)"><path class="a" d="M723.142,444.609a13.577,13.577,0,0,1,13.267-5.373,13.579,13.579,0,1,0-14.35,19.645A13.577,13.577,0,0,1,723.142,444.609Z" transform="translate(-707.78 -428.92)"/></g><path class="b" d="M742.2,484.111c0-.026,0-.051,0-.077a3.82,3.82,0,0,0-5.71-3.439,5.083,5.083,0,0,0-9.913,1.417,5.194,5.194,0,0,0,.017.6,3.82,3.82,0,0,0,.622,7.565c1.854.058,12.711-.4,14-.355a2.923,2.923,0,0,0,.976-5.708Z" transform="translate(-719.338 -462.26)"/><path class="c" d="M768.454,482.47c0-.02,0-.04,0-.061a3.015,3.015,0,0,0-4.507-2.714,4.01,4.01,0,0,0-7.809,1.59,3.015,3.015,0,0,0,.491,5.97c1.463.046,10.032-.312,11.051-.28a2.307,2.307,0,0,0,.771-4.5Z" transform="translate(-739.618 -462.152)"/></g></svg>